<?xml version="1.0" encoding="UTF-8"?><svg id="Layer_1" xmlns="http://www.w3.org/2000/svg" width="330" height="330" viewBox="0 0 330 330"><defs><style>.cls-1{fill:#ffd23f;}.cls-1,.cls-2{opacity:.8;}.cls-2{fill:#cd5334;}</style></defs><path class="cls-2" d="M95.77,261.04C43.24,261.04.5,218.31.5,165.78s42.74-95.27,95.27-95.27,95.27,42.74,95.27,95.27-42.74,95.27-95.27,95.27Z"/><path d="M95.77,71.01c52.25,0,94.77,42.51,94.77,94.77s-42.51,94.77-94.77,94.77S1,218.03,1,165.78s42.51-94.77,94.77-94.77M95.77,70.01C42.88,70.01,0,112.89,0,165.78s42.88,95.77,95.77,95.77,95.77-42.88,95.77-95.77-42.88-95.77-95.77-95.77h0Z"/><path class="cls-1" d="M220.59,274.69c-60.05,0-108.91-48.86-108.91-108.91s48.86-108.91,108.91-108.91,108.91,48.86,108.91,108.91-48.86,108.91-108.91,108.91Z"/><path d="M220.59,57.37c28.96,0,56.18,11.28,76.66,31.75,20.48,20.48,31.75,47.7,31.75,76.66s-11.28,56.18-31.75,76.66c-20.48,20.48-47.7,31.75-76.66,31.75s-56.18-11.28-76.66-31.75c-20.48-20.48-31.75-47.7-31.75-76.66s11.28-56.18,31.75-76.66c20.48-20.48,47.7-31.75,76.66-31.75M220.59,56.37c-60.43,0-109.41,48.98-109.41,109.41s48.98,109.41,109.41,109.41,109.41-48.98,109.41-109.41-48.98-109.41-109.41-109.41h0Z"/><path d="M95.77,72.01c51.7,0,93.77,42.06,93.77,93.77s-42.06,93.77-93.77,93.77S2,217.48,2,165.78s42.06-93.77,93.77-93.77M95.77,70.01C42.88,70.01,0,112.89,0,165.78s42.88,95.77,95.77,95.77,95.77-42.88,95.77-95.77-42.88-95.77-95.77-95.77h0Z"/><path d="M220.59,58.37c28.69,0,55.66,11.17,75.95,31.46,20.29,20.29,31.46,47.26,31.46,75.95s-11.17,55.66-31.46,75.95c-20.29,20.29-47.26,31.46-75.95,31.46s-55.66-11.17-75.95-31.46c-20.29-20.29-31.46-47.26-31.46-75.95s11.17-55.66,31.46-75.95c20.29-20.29,47.26-31.46,75.95-31.46M220.59,56.37c-60.43,0-109.41,48.98-109.41,109.41s48.98,109.41,109.41,109.41,109.41-48.98,109.41-109.41-48.98-109.41-109.41-109.41h0Z"/></svg>