<?xml version="1.0" encoding="UTF-8"?><svg id="Layer_1" xmlns="http://www.w3.org/2000/svg" width="350" height="350" viewBox="0 0 350 350"><defs><style>.cls-1{font-family:PublicSans-Bold, 'Public Sans';font-size:38px;font-weight:700;}.cls-1,.cls-2{fill:#28666e;}.cls-3{fill:none;stroke:#28666e;stroke-linecap:round;stroke-miterlimit:10;stroke-width:4px;}.cls-4{letter-spacing:0em;}.cls-5{letter-spacing:0em;}</style></defs><text class="cls-1" transform="translate(7.55 343.89)"><tspan x="0" y="0">T</tspan><tspan class="cls-5" x="23.41" y="0">i</tspan><tspan x="33.67" y="0">m</tspan><tspan class="cls-4" x="67.7" y="0">e</tspan></text><line class="cls-3" y1="305" x2="326.12" y2="305"/><polygon class="cls-2" points="314.89 319.81 321.18 305 314.89 290.19 350 305 314.89 319.81"/><path class="cls-2" d="M25.1,289.5c-13.57,0-24.6-11.04-24.6-24.6s11.04-24.6,24.6-24.6,24.6,11.04,24.6,24.6-11.04,24.6-24.6,24.6Z"/><path d="M25.1,240.8c13.29,0,24.1,10.81,24.1,24.1s-10.81,24.1-24.1,24.1-24.1-10.81-24.1-24.1,10.81-24.1,24.1-24.1M25.1,239.8C11.24,239.8,0,251.03,0,264.9s11.24,25.1,25.1,25.1,25.1-11.24,25.1-25.1-11.24-25.1-25.1-25.1h0Z"/><path class="cls-2" d="M107.39,279.16c-19.68,0-35.69-16.01-35.69-35.69s16.01-35.69,35.69-35.69,35.69,16.01,35.69,35.69-16.01,35.69-35.69,35.69Z"/><path d="M107.39,208.28c19.4,0,35.19,15.79,35.19,35.19s-15.79,35.19-35.19,35.19-35.19-15.79-35.19-35.19,15.79-35.19,35.19-35.19M107.39,207.28c-19.99,0-36.19,16.2-36.19,36.19s16.2,36.19,36.19,36.19,36.19-16.2,36.19-36.19-16.2-36.19-36.19-36.19h0Z"/><path class="cls-2" d="M202.01,239.3c-26.32,0-47.73-22.36-47.73-49.85s21.41-49.85,47.73-49.85,47.73,22.36,47.73,49.85-21.41,49.85-47.73,49.85Z"/><path d="M202.01,140.1c26.04,0,47.23,22.14,47.23,49.35s-21.19,49.35-47.23,49.35-47.23-22.14-47.23-49.35,21.19-49.35,47.23-49.35M202.01,139.1c-26.64,0-48.23,22.54-48.23,50.35s21.59,50.35,48.23,50.35,48.23-22.54,48.23-50.35-21.59-50.35-48.23-50.35h0Z"/><path class="cls-2" d="M278.54,148.68c-39.12,0-70.95-33.24-70.95-74.09S239.42.5,278.54.5s70.96,33.24,70.96,74.09-31.83,74.09-70.96,74.09Z"/><path d="M278.55,1c38.85,0,70.45,33.01,70.45,73.59s-31.61,73.59-70.45,73.59-70.45-33.01-70.45-73.59S239.7,1,278.55,1M278.55,0C239.08,0,207.09,33.4,207.09,74.59s31.99,74.59,71.45,74.59,71.45-33.4,71.45-74.59S318.01,0,278.55,0h0Z"/></svg>