<?xml version="1.0" encoding="UTF-8"?><svg id="Layer_1" xmlns="http://www.w3.org/2000/svg" width="350" height="350" viewBox="0 0 350 350"><defs><style>.cls-1{opacity:.3;}.cls-2{opacity:.4;}.cls-3{opacity:.2;}.cls-4{opacity:.1;}.cls-5{opacity:.5;}.cls-6{fill:#533747;}</style></defs><path class="cls-6" d="M205,206.58c-15.11,0-27.4-12.29-27.4-27.4s12.29-27.4,27.4-27.4,27.4,12.29,27.4,27.4-12.29,27.4-27.4,27.4Z"/><path d="M205,152.28c14.83,0,26.9,12.07,26.9,26.9s-12.07,26.9-26.9,26.9-26.9-12.07-26.9-26.9,12.07-26.9,26.9-26.9M205,151.28c-15.41,0-27.9,12.49-27.9,27.9s12.49,27.9,27.9,27.9,27.9-12.49,27.9-27.9-12.49-27.9-27.9-27.9h0Z"/><path class="cls-6" d="M154.57,140.26c-15.11,0-27.4-12.29-27.4-27.4s12.29-27.4,27.4-27.4,27.4,12.29,27.4,27.4-12.29,27.4-27.4,27.4Z"/><path d="M154.57,85.96c14.83,0,26.9,12.07,26.9,26.9s-12.07,26.9-26.9,26.9-26.9-12.07-26.9-26.9,12.07-26.9,26.9-26.9M154.57,84.96c-15.41,0-27.9,12.49-27.9,27.9s12.49,27.9,27.9,27.9,27.9-12.49,27.9-27.9-12.49-27.9-27.9-27.9h0Z"/><path class="cls-6" d="M288.96,119.56c-15.11,0-27.4-12.29-27.4-27.4s12.29-27.4,27.4-27.4,27.4,12.29,27.4,27.4-12.29,27.4-27.4,27.4Z"/><path d="M288.96,65.26c14.83,0,26.9,12.07,26.9,26.9s-12.07,26.9-26.9,26.9-26.9-12.07-26.9-26.9,12.07-26.9,26.9-26.9M288.96,64.26c-15.41,0-27.9,12.49-27.9,27.9s12.49,27.9,27.9,27.9,27.9-12.49,27.9-27.9-12.49-27.9-27.9-27.9h0Z"/><path class="cls-6" d="M103.02,206.58c-15.11,0-27.4-12.29-27.4-27.4s12.29-27.4,27.4-27.4,27.4,12.29,27.4,27.4-12.29,27.4-27.4,27.4Z"/><path d="M103.02,152.28c14.83,0,26.9,12.07,26.9,26.9s-12.07,26.9-26.9,26.9-26.9-12.07-26.9-26.9,12.07-26.9,26.9-26.9M103.02,151.28c-15.41,0-27.9,12.49-27.9,27.9s12.49,27.9,27.9,27.9,27.9-12.49,27.9-27.9-12.49-27.9-27.9-27.9h0Z"/><path class="cls-6" d="M250.95,272.24c-15.11,0-27.4-12.29-27.4-27.4s12.29-27.4,27.4-27.4,27.4,12.29,27.4,27.4-12.29,27.4-27.4,27.4Z"/><path d="M250.95,217.94c14.83,0,26.9,12.07,26.9,26.9s-12.07,26.9-26.9,26.9-26.9-12.07-26.9-26.9,12.07-26.9,26.9-26.9M250.95,216.94c-15.41,0-27.9,12.49-27.9,27.9s12.49,27.9,27.9,27.9,27.9-12.49,27.9-27.9-12.49-27.9-27.9-27.9h0Z"/><g class="cls-2"><path class="cls-6" d="M83.39,75.6c-7.48,0-13.57-6.09-13.57-13.57s6.09-13.57,13.57-13.57,13.57,6.09,13.57,13.57-6.09,13.57-13.57,13.57Z"/><path d="M83.39,48.59c7.41,0,13.44,6.03,13.44,13.44s-6.03,13.44-13.44,13.44-13.44-6.03-13.44-13.44,6.03-13.44,13.44-13.44M83.39,48.34c-7.56,0-13.69,6.13-13.69,13.69s6.13,13.69,13.69,13.69,13.69-6.13,13.69-13.69-6.13-13.69-13.69-13.69h0Z"/></g><g class="cls-5"><path class="cls-6" d="M109.18,105.78c-9.57,0-17.36-7.79-17.36-17.36s7.79-17.36,17.36-17.36,17.36,7.79,17.36,17.36-7.79,17.36-17.36,17.36Z"/><path d="M109.18,71.19c9.5,0,17.23,7.73,17.23,17.23s-7.73,17.23-17.23,17.23-17.23-7.73-17.23-17.23,7.73-17.23,17.23-17.23M109.18,70.94c-9.66,0-17.48,7.83-17.48,17.48s7.83,17.48,17.48,17.48,17.48-7.83,17.48-17.48-7.83-17.48-17.48-17.48h0Z"/></g><g class="cls-1"><circle class="cls-6" cx="72.4" cy="38.84" r="8.87"/><path d="M72.4,30.1c4.82,0,8.74,3.92,8.74,8.74s-3.92,8.74-8.74,8.74-8.74-3.92-8.74-8.74,3.92-8.74,8.74-8.74M72.4,29.85c-4.97,0-8.99,4.03-8.99,8.99s4.03,8.99,8.99,8.99,8.99-4.03,8.99-8.99-4.03-8.99-8.99-8.99h0Z"/></g><g class="cls-3"><path class="cls-6" d="M66.38,26.82c-3.25,0-5.89-2.64-5.89-5.89s2.64-5.89,5.89-5.89,5.89,2.64,5.89,5.89-2.64,5.89-5.89,5.89Z"/><path d="M66.38,15.16c3.18,0,5.77,2.59,5.77,5.77s-2.59,5.77-5.77,5.77-5.77-2.59-5.77-5.77,2.59-5.77,5.77-5.77M66.38,14.91c-3.32,0-6.02,2.69-6.02,6.02s2.69,6.02,6.02,6.02,6.02-2.69,6.02-6.02-2.69-6.02-6.02-6.02h0Z"/></g><g class="cls-4"><circle class="cls-6" cx="63.41" cy="6.53" r="4.89"/><path d="M63.41,1.77c2.62,0,4.76,2.14,4.76,4.76s-2.14,4.76-4.76,4.76-4.76-2.14-4.76-4.76,2.14-4.76,4.76-4.76M63.41,1.52c-2.77,0-5.01,2.24-5.01,5.01s2.24,5.01,5.01,5.01,5.01-2.24,5.01-5.01-2.24-5.01-5.01-5.01h0Z"/></g><g class="cls-2"><path class="cls-6" d="M62.2,173.84c-7.48,0-13.57-6.09-13.57-13.57s6.09-13.57,13.57-13.57,13.57,6.09,13.57,13.57-6.09,13.57-13.57,13.57Z"/><path d="M62.2,146.83c7.41,0,13.44,6.03,13.44,13.44s-6.03,13.44-13.44,13.44-13.44-6.03-13.44-13.44,6.03-13.44,13.44-13.44M62.2,146.58c-7.56,0-13.69,6.13-13.69,13.69s6.13,13.69,13.69,13.69,13.69-6.13,13.69-13.69-6.13-13.69-13.69-13.69h0Z"/></g><g class="cls-1"><circle class="cls-6" cx="36.89" cy="146.79" r="8.87"/><path d="M36.89,138.05c4.82,0,8.74,3.92,8.74,8.74s-3.92,8.74-8.74,8.74-8.74-3.92-8.74-8.74,3.92-8.74,8.74-8.74M36.89,137.8c-4.97,0-8.99,4.03-8.99,8.99s4.03,8.99,8.99,8.99,8.99-4.03,8.99-8.99-4.03-8.99-8.99-8.99h0Z"/></g><g class="cls-3"><path class="cls-6" d="M19.25,143.69c-3.25,0-5.89-2.64-5.89-5.89s2.64-5.89,5.89-5.89,5.89,2.64,5.89,5.89-2.64,5.89-5.89,5.89Z"/><path d="M19.25,132.03c3.18,0,5.77,2.59,5.77,5.77s-2.59,5.77-5.77,5.77-5.77-2.59-5.77-5.77,2.59-5.77,5.77-5.77M19.25,131.78c-3.32,0-6.02,2.69-6.02,6.02s2.69,6.02,6.02,6.02,6.02-2.69,6.02-6.02-2.69-6.02-6.02-6.02h0Z"/></g><g class="cls-4"><circle class="cls-6" cx="4.93" cy="131.78" r="4.89"/><path d="M4.93,127.02c2.62,0,4.76,2.14,4.76,4.76s-2.14,4.76-4.76,4.76-4.76-2.14-4.76-4.76,2.14-4.76,4.76-4.76M4.93,126.77c-2.77,0-5.01,2.24-5.01,5.01s2.24,5.01,5.01,5.01,5.01-2.24,5.01-5.01-2.24-5.01-5.01-5.01h0Z"/></g><g class="cls-2"><path class="cls-6" d="M322.35,305.21c-7.48,0-13.57-6.09-13.57-13.57s6.09-13.57,13.57-13.57,13.57,6.09,13.57,13.57-6.09,13.57-13.57,13.57Z"/><path d="M322.35,278.19c7.41,0,13.44,6.03,13.44,13.44s-6.03,13.44-13.44,13.44-13.44-6.03-13.44-13.44,6.03-13.44,13.44-13.44M322.35,277.94c-7.56,0-13.69,6.13-13.69,13.69s6.13,13.69,13.69,13.69,13.69-6.13,13.69-13.69-6.13-13.69-13.69-13.69h0Z"/></g><g class="cls-5"><path class="cls-6" d="M296.33,285.2c-9.57,0-17.36-7.79-17.36-17.36s7.79-17.36,17.36-17.36,17.36,7.79,17.36,17.36-7.79,17.36-17.36,17.36Z"/><path d="M296.33,250.6c9.5,0,17.23,7.73,17.23,17.23s-7.73,17.23-17.23,17.23-17.23-7.73-17.23-17.23,7.73-17.23,17.23-17.23M296.33,250.35c-9.66,0-17.48,7.83-17.48,17.48s7.83,17.48,17.48,17.48,17.48-7.83,17.48-17.48-7.83-17.48-17.48-17.48h0Z"/></g><g class="cls-1"><path class="cls-6" d="M331.34,326.21c-4.89,0-8.87-3.98-8.87-8.87s3.98-8.87,8.87-8.87,8.87,3.98,8.87,8.87-3.98,8.87-8.87,8.87Z"/><path d="M331.34,308.61c4.82,0,8.74,3.92,8.74,8.74s-3.92,8.74-8.74,8.74-8.74-3.92-8.74-8.74,3.92-8.74,8.74-8.74M331.34,308.36c-4.97,0-8.99,4.03-8.99,8.99s4.03,8.99,8.99,8.99,8.99-4.03,8.99-8.99-4.03-8.99-8.99-8.99h0Z"/></g><g class="cls-3"><circle class="cls-6" cx="331.34" cy="337.67" r="5.89"/><path d="M331.34,331.9c3.18,0,5.77,2.59,5.77,5.77s-2.59,5.77-5.77,5.77-5.77-2.59-5.77-5.77,2.59-5.77,5.77-5.77M331.34,331.65c-3.32,0-6.02,2.69-6.02,6.02s2.69,6.02,6.02,6.02,6.02-2.69,6.02-6.02-2.69-6.02-6.02-6.02h0Z"/></g><g class="cls-2"><path class="cls-6" d="M329.86,30.18c-4.82,0-8.73-3.92-8.73-8.73s3.92-8.73,8.73-8.73,8.73,3.92,8.73,8.73-3.92,8.73-8.73,8.73Z"/><path d="M329.86,12.84c4.75,0,8.61,3.86,8.61,8.61s-3.86,8.61-8.61,8.61-8.61-3.86-8.61-8.61,3.86-8.61,8.61-8.61M329.86,12.59c-4.89,0-8.86,3.97-8.86,8.86s3.97,8.86,8.86,8.86,8.86-3.97,8.86-8.86-3.97-8.86-8.86-8.86h0Z"/></g><g class="cls-5"><path class="cls-6" d="M314.4,64.83c-9.57,0-17.36-7.79-17.36-17.36s7.79-17.36,17.36-17.36,17.36,7.79,17.36,17.36-7.79,17.36-17.36,17.36Z"/><path d="M314.4,30.24c9.5,0,17.23,7.73,17.23,17.23s-7.73,17.23-17.23,17.23-17.23-7.73-17.23-17.23,7.73-17.23,17.23-17.23M314.4,29.99c-9.66,0-17.48,7.83-17.48,17.48s7.83,17.48,17.48,17.48,17.48-7.83,17.48-17.48-7.83-17.48-17.48-17.48h0Z"/></g><g class="cls-3"><path class="cls-6" d="M337.49,10.9c-2.02,0-3.66-1.64-3.66-3.66s1.64-3.66,3.66-3.66,3.67,1.64,3.67,3.66-1.64,3.66-3.67,3.66Z"/><path d="M337.49,3.7c1.95,0,3.54,1.59,3.54,3.54s-1.59,3.54-3.54,3.54-3.54-1.59-3.54-3.54,1.59-3.54,3.54-3.54M337.49,3.45c-2.09,0-3.79,1.7-3.79,3.79s1.7,3.79,3.79,3.79,3.79-1.7,3.79-3.79-1.7-3.79-3.79-3.79h0Z"/></g></svg>