<?xml version="1.0" encoding="UTF-8"?>
<svg id="Layer_1" xmlns="http://www.w3.org/2000/svg" width="1050" height="450" version="1.1" viewBox="0 0 1050 450">
  <!-- Generator: Adobe Illustrator 29.4.0, SVG Export Plug-In . SVG Version: 2.1.0 Build 152)  -->
  <defs>
    <style type='text/css'><![CDATA[
      @import url("https://fonts.googleapis.com/css2?family=Public+Sans:ital,wght@0,100..900;1,100..900&display=swap");
      
      .st0 {
        font-family: PublicSans-Regular, 'Public Sans';
        font-size: 34px;
      }

      .st1 {
        fill: none;
        stroke: #4d4d4d;
        stroke-width: .75px;
      }

      .st1, .st2, .st3, .st4, .st5 {
        stroke-miterlimit: 10;
      }

      .st2, .st3, .st4, .st5 {
        font-family: PublicSans-Bold, 'Public Sans';
        font-size: 43px;
        font-weight: 700;
        stroke: #000;
      }

      .st2, .st6 {
        fill: #533747;
      }

      .st3, .st7 {
        fill: #cd5334;
      }

      .st4, .st8 {
        fill: #28666e;
      }

      .st5, .st9 {
        fill: #ffd23f;
      }
    ]]></style>
  </defs>
  <line class="st1" x1="580.86" y1="432.85" x2="525" y2="225"/>
  <line class="st1" x1="582.1" y1="332.5" x2="525" y2="225"/>
  <line class="st1" x1="467.02" y1="432.85" x2="525" y2="225"/>
  <line class="st1" x1="468.27" y1="332.5" x2="525" y2="225"/>
  <line class="st1" x1="730.71" y1="124.05" x2="525" y2="225"/>
  <line class="st1" x1="679.84" y1="109.8" x2="525" y2="225"/>
  <line class="st1" x1="694.09" y1="16.3" x2="525" y2="225"/>
  <line class="st1" x1="615.62" y1="60.08" x2="525" y2="225"/>
  <line class="st1" x1="435.86" y1="43.68" x2="525" y2="225"/>
  <line class="st1" x1="328" y1="126.52" x2="525" y2="225"/>
  <line class="st1" x1="389.98" y1="116.14" x2="525" y2="225"/>
  <line class="st1" x1="375.14" y1="43.68" x2="525" y2="225"/>
  <g>
    <path class="st7" d="M525,248.24c-12.82,0-23.24-10.43-23.24-23.24s10.43-23.24,23.24-23.24,23.24,10.43,23.24,23.24-10.43,23.24-23.24,23.24Z"/>
    <path d="M525,202.26c12.54,0,22.74,10.2,22.74,22.74s-10.2,22.74-22.74,22.74-22.74-10.2-22.74-22.74,10.2-22.74,22.74-22.74M525,201.26c-13.11,0-23.74,10.63-23.74,23.74s10.63,23.74,23.74,23.74,23.74-10.63,23.74-23.74-10.63-23.74-23.74-23.74h0Z"/>
  </g>
  <text class="st2" transform="translate(625.5 444.79)"><tspan x="0" y="0">Knots</tspan></text>
  <g>
    <g>
      <path class="st6" d="M582.1,346.25c-7.58,0-13.75-6.17-13.75-13.75s6.17-13.75,13.75-13.75,13.75,6.17,13.75,13.75-6.17,13.75-13.75,13.75Z"/>
      <path d="M582.1,319.26c7.3,0,13.25,5.94,13.25,13.25s-5.94,13.25-13.25,13.25-13.25-5.94-13.25-13.25,5.94-13.25,13.25-13.25M582.1,318.26c-7.87,0-14.25,6.38-14.25,14.25s6.38,14.25,14.25,14.25,14.25-6.38,14.25-14.25-6.38-14.25-14.25-14.25h0Z"/>
    </g>
    <g>
      <path class="st6" d="M468.27,346.25c-7.58,0-13.75-6.17-13.75-13.75s6.17-13.75,13.75-13.75,13.75,6.17,13.75,13.75-6.17,13.75-13.75,13.75Z"/>
      <path d="M468.27,319.26c7.3,0,13.25,5.94,13.25,13.25s-5.94,13.25-13.25,13.25-13.25-5.94-13.25-13.25,5.94-13.25,13.25-13.25M468.27,318.26c-7.87,0-14.25,6.38-14.25,14.25s6.38,14.25,14.25,14.25,14.25-6.38,14.25-14.25-6.38-14.25-14.25-14.25h0Z"/>
    </g>
    <g>
      <path class="st6" d="M580.86,446.6c-7.58,0-13.75-6.17-13.75-13.75s6.17-13.75,13.75-13.75,13.75,6.17,13.75,13.75-6.17,13.75-13.75,13.75Z"/>
      <path d="M580.86,419.6c7.3,0,13.25,5.94,13.25,13.25s-5.94,13.25-13.25,13.25-13.25-5.94-13.25-13.25,5.94-13.25,13.25-13.25M580.86,418.6c-7.87,0-14.25,6.38-14.25,14.25s6.38,14.25,14.25,14.25,14.25-6.38,14.25-14.25-6.38-14.25-14.25-14.25h0Z"/>
    </g>
    <g>
      <path class="st6" d="M467.02,446.6c-7.58,0-13.75-6.17-13.75-13.75s6.17-13.75,13.75-13.75,13.75,6.17,13.75,13.75-6.17,13.75-13.75,13.75Z"/>
      <path d="M467.02,419.6c7.3,0,13.25,5.94,13.25,13.25s-5.94,13.25-13.25,13.25-13.25-5.94-13.25-13.25,5.94-13.25,13.25-13.25M467.02,418.6c-7.87,0-14.25,6.38-14.25,14.25s6.38,14.25,14.25,14.25,14.25-6.38,14.25-14.25-6.38-14.25-14.25-14.25h0Z"/>
    </g>
  </g>
  <g>
    <path class="st9" d="M679.84,123.55c-7.58,0-13.75-6.17-13.75-13.75s6.17-13.75,13.75-13.75,13.75,6.17,13.75,13.75-6.17,13.75-13.75,13.75Z"/>
    <path d="M679.84,96.56c7.3,0,13.25,5.94,13.25,13.25s-5.94,13.25-13.25,13.25-13.25-5.94-13.25-13.25,5.94-13.25,13.25-13.25M679.84,95.56c-7.87,0-14.25,6.38-14.25,14.25s6.38,14.25,14.25,14.25,14.25-6.38,14.25-14.25-6.38-14.25-14.25-14.25h0Z"/>
  </g>
  <g>
    <path class="st9" d="M615.62,73.83c-7.58,0-13.75-6.17-13.75-13.75s6.17-13.75,13.75-13.75,13.75,6.17,13.75,13.75-6.17,13.75-13.75,13.75Z"/>
    <path d="M615.62,46.83c7.3,0,13.25,5.94,13.25,13.25s-5.94,13.25-13.25,13.25-13.25-5.94-13.25-13.25,5.94-13.25,13.25-13.25M615.62,45.83c-7.87,0-14.25,6.38-14.25,14.25s6.38,14.25,14.25,14.25,14.25-6.38,14.25-14.25-6.38-14.25-14.25-14.25h0Z"/>
  </g>
  <g>
    <path class="st9" d="M694.09,30.04c-7.58,0-13.75-6.17-13.75-13.75s6.17-13.75,13.75-13.75,13.75,6.17,13.75,13.75-6.17,13.75-13.75,13.75Z"/>
    <path d="M694.09,3.05c7.3,0,13.25,5.94,13.25,13.25s-5.94,13.25-13.25,13.25-13.25-5.94-13.25-13.25,5.94-13.25,13.25-13.25M694.09,2.05c-7.87,0-14.25,6.38-14.25,14.25s6.38,14.25,14.25,14.25,14.25-6.38,14.25-14.25-6.38-14.25-14.25-14.25h0Z"/>
  </g>
  <g>
    <path class="st9" d="M730.71,137.79c-7.58,0-13.75-6.17-13.75-13.75s6.17-13.75,13.75-13.75,13.75,6.17,13.75,13.75-6.17,13.75-13.75,13.75Z"/>
    <path d="M730.71,110.8c7.3,0,13.25,5.94,13.25,13.25s-5.94,13.25-13.25,13.25-13.25-5.94-13.25-13.25,5.94-13.25,13.25-13.25M730.71,109.8c-7.87,0-14.25,6.38-14.25,14.25s6.38,14.25,14.25,14.25,14.25-6.38,14.25-14.25-6.38-14.25-14.25-14.25h0Z"/>
  </g>
  <text class="st5" transform="translate(731.79 37.51)"><tspan x="0" y="0">Artifacts</tspan></text>
  <text class="st0" transform="translate(729.67 76.27)"><tspan x="0" y="0">Spatial Aggregates</tspan></text>
  <text class="st0" transform="translate(625.5 397.24)"><tspan x="0" y="0">Spatial Basis Functions</tspan></text>
  <g>
    <path class="st8" d="M392.07,129.88c-6.43,0-11.66-5.23-11.66-11.66s5.23-11.66,11.66-11.66,11.66,5.23,11.66,11.66-5.23,11.66-11.66,11.66Z"/>
    <path d="M392.07,107.06c6.15,0,11.16,5.01,11.16,11.16s-5.01,11.16-11.16,11.16-11.16-5.01-11.16-11.16,5.01-11.16,11.16-11.16M392.07,106.06c-6.72,0-12.16,5.44-12.16,12.16s5.44,12.16,12.16,12.16,12.16-5.44,12.16-12.16-5.44-12.16-12.16-12.16h0Z"/>
  </g>
  <g>
    <path class="st8" d="M435.86,53.21c-5.25,0-9.52-4.27-9.52-9.53s4.27-9.52,9.52-9.52,9.52,4.27,9.52,9.52-4.27,9.53-9.52,9.53Z"/>
    <path d="M435.86,34.66c4.98,0,9.02,4.05,9.02,9.02s-4.05,9.02-9.02,9.02-9.02-4.05-9.02-9.02,4.05-9.02,9.02-9.02M435.86,33.66c-5.54,0-10.02,4.49-10.02,10.02s4.49,10.02,10.02,10.02,10.02-4.49,10.02-10.02-4.49-10.02-10.02-10.02h0Z"/>
  </g>
  <g>
    <path class="st8" d="M376.24,76.41c-18.65,0-33.82-15.17-33.82-33.82s15.17-33.82,33.82-33.82,33.82,15.17,33.82,33.82-15.17,33.82-33.82,33.82Z"/>
    <path d="M376.24,9.27c18.37,0,33.32,14.95,33.32,33.32s-14.95,33.32-33.32,33.32-33.32-14.95-33.32-33.32,14.95-33.32,33.32-33.32M376.24,8.27c-18.95,0-34.32,15.36-34.32,34.32s15.36,34.32,34.32,34.32,34.32-15.36,34.32-34.32-15.36-34.32-34.32-34.32h0Z"/>
  </g>
  <g>
    <path class="st8" d="M328,153.17c-14.69,0-26.65-11.95-26.65-26.65s11.95-26.65,26.65-26.65,26.65,11.95,26.65,26.65-11.95,26.65-26.65,26.65Z"/>
    <path d="M328,100.37c14.42,0,26.15,11.73,26.15,26.15s-11.73,26.15-26.15,26.15-26.15-11.73-26.15-26.15,11.73-26.15,26.15-26.15M328,99.37c-14.99,0-27.15,12.15-27.15,27.15s12.15,27.15,27.15,27.15,27.15-12.15,27.15-27.15-12.15-27.15-27.15-27.15h0Z"/>
  </g>
  <text class="st4" transform="translate(44.85 38.11)"><tspan x="0" y="0">Room Counts</tspan></text>
  <text class="st0" transform="translate(8.59 74.33)"><tspan x="0" y="0">Spatial Aggregates</tspan></text>
  <text class="st3" transform="translate(254.03 251.1)"><tspan x="0" y="0">Direct Date</tspan></text>
</svg>