<?xml version="1.0" encoding="UTF-8"?>
<svg id="Layer_2" data-name="Layer 2" xmlns="http://www.w3.org/2000/svg" viewBox="0 0 142.04 86.31">
  <defs>
    <style>
      .cls-1 {
        fill: #5b5b5b;
      }

      .cls-2 {
        fill: #be0000;
      }
    </style>
  </defs>
  <g id="Layer_1-2" data-name="Layer 1">
    <g>
      <path class="cls-2" d="M2.9,80.7c0,.49,0,1.08.03,1.35.02.17.06.3.25.33.08.02.16.02.28.03.1,0,.13.03.13.07s-.03.06-.14.06c-.43,0-1.04-.02-1.14-.02-.11,0-.72.02-.93.02-.1,0-.14,0-.14-.07,0-.04.05-.07.13-.07.07,0,.13-.02.2-.03.14-.03.18-.17.2-.35.03-.27.04-.72.04-1.33v-2.48c-.25,0-.64,0-.96.02-.35.02-.49.1-.58.33-.03.07-.04.11-.06.14-.02.05-.03.1-.08.1-.06,0-.06-.05-.05-.13.03-.26.09-.6.14-.84.02-.09.03-.16.07-.16.04,0,.07.02.22.05.12.03.46.04.7.04h2.75c.19,0,.31-.02.4-.03.1-.02.15-.04.2-.04.06,0,.07.04.07.2,0,.09-.03.68-.04.83,0,.09-.03.13-.07.13-.05,0-.07-.03-.07-.12,0-.07,0-.09-.02-.13-.03-.2-.12-.35-.49-.38-.21-.02-.53-.03-1.02-.03v2.49h-.03Z"/>
      <path class="cls-2" d="M8.36,80.06s.04,0,.04-.03v-.12c0-.85,0-.93-.02-1.1,0-.14-.06-.24-.25-.28-.04,0-.13,0-.19-.02-.08,0-.11-.04-.11-.07,0-.03.03-.07.12-.07.33,0,.88.02.92.02.03,0,.73-.02.98-.02.1,0,.12.03.12.07,0,.03-.02.07-.09.07-.11.02-.12.02-.18.03-.14.02-.19.1-.21.28s-.02.3-.02,1.16v.96c0,.53,0,.93.03,1.14.02.19.07.28.24.3.08,0,.18,0,.23.02.08,0,.11.03.11.07,0,.04-.06.06-.13.06-.38,0-1.01-.02-1.1-.02s-.53.02-.83.02c-.11,0-.12-.03-.12-.07,0-.03.03-.07.1-.07.07,0,.12,0,.17-.02.14-.03.18-.13.2-.31.03-.23.03-.54.03-1.08v-.42s-.02-.03-.04-.03h-1.67s-.03,0-.03.03v.58c0,.53,0,.69.03.93.02.17.09.28.26.29.08.02.17.02.22.03.08,0,.11.03.11.07,0,.03-.02.06-.11.06-.32,0-1.06-.02-1.09-.02-.03,0-.69.02-.86.02-.07,0-.12-.02-.12-.06,0-.03.02-.07.09-.07.07,0,.09,0,.17-.02.14-.02.2-.16.21-.33.03-.23.03-.59.03-1.12v-.94c0-.85,0-.97-.02-1.14-.02-.18-.06-.28-.28-.32-.08,0-.1,0-.18-.02-.09,0-.09-.05-.09-.07,0-.04.06-.06.12-.06.33,0,.84.02.97.02.23,0,.67-.02.92-.02.11,0,.12.03.12.07,0,.03-.03.05-.1.06-.08,0-.13.02-.18.03-.17.03-.19.17-.2.31-.02.18-.02.41-.02,1.06v.12s.02.03.03.03h1.64"/>
      <path class="cls-2" d="M11.19,79.98c0-.91,0-1.01-.02-1.19-.02-.14-.07-.23-.2-.25-.05,0-.12,0-.17-.02-.08,0-.09-.03-.09-.07s.03-.06.12-.06c.34,0,.61.02.85.02.1,0,1.56,0,1.64,0,.11,0,.23,0,.33-.03.04,0,.07-.02.09-.02.03,0,.04.03.04.06-.02.07-.03.14-.04.27,0,.14,0,.25-.03.59,0,.04-.03.09-.07.09-.03,0-.06-.03-.07-.08,0-.08,0-.12-.03-.2-.03-.13-.1-.2-.38-.23-.21,0-.67-.03-.85-.03-.03,0-.04.02-.04.06v1.16s0,.05.04.05c.17,0,.56,0,.78,0,.31-.02.38-.03.46-.14.03-.05.05-.07.08-.07.04,0,.04.04.04.07,0,.07-.03.3-.04.51,0,.12-.02.41-.02.48,0,.08-.02.09-.06.09-.03,0-.06-.03-.07-.09,0-.03,0-.07-.02-.11-.03-.17-.09-.28-.39-.29-.18,0-.61-.02-.78-.02-.03,0-.04,0-.04.04v.4c0,.18,0,.44,0,.67,0,.38.08.48.73.48.14,0,.37,0,.53-.07.16-.07.23-.2.28-.45.02-.07.04-.09.08-.09.04,0,.05.04.05.12,0,.24-.06.68-.08.79-.04.14-.09.14-.3.14-.85,0-1.25-.03-1.85-.03-.27,0-.53.02-.86.02-.11,0-.13-.03-.13-.07,0-.03.02-.06.12-.06.06,0,.1,0,.17-.02.18-.03.2-.25.22-.63,0-.21,0-.51,0-.82v-.97"/>
      <path class="cls-2" d="M19.32,82.74c0,1.49.23,2.13.83,2.55.44.29.82.3,1.08.3.35,0,.82-.08,1.19-.4.61-.52.61-1.66.61-2.78v-1.3c0-1.59,0-1.88-.03-2.23-.03-.41-.11-.59-.47-.66-.12-.03-.18-.03-.4-.04-.14,0-.19-.04-.19-.11s.06-.11.25-.11c.62,0,1.28.03,1.45.03.19,0,.9-.03,1.43-.03.17,0,.23.03.23.11,0,.05-.04.1-.18.11-.12,0-.18,0-.33.04-.29.06-.38.22-.41.66-.03.35-.03.63-.03,2.23v1.06c0,1.23-.05,2.57-1.11,3.43-.68.57-1.52.72-2.25.72-.95,0-1.91-.14-2.58-.73-.58-.48-1.01-1.27-1.01-2.83v-1.65c0-1.68,0-1.98-.03-2.33-.03-.3-.08-.44-.33-.52-.12-.04-.37-.07-.47-.08-.17,0-.23-.06-.23-.12,0-.07.08-.1.29-.1.47,0,1.56.03,1.66.03.08,0,1.38-.03,1.77-.03.18,0,.24.03.24.1,0,.08-.05.11-.19.12-.1,0-.25.03-.36.04-.3.07-.36.29-.38.64s-.03.86-.03,2.24v1.62h-.02Z"/>
      <path class="cls-2" d="M26.76,79.41c0-.32.04-.48.18-.48.06,0,.1,0,.37.21.47.37,1.96,1.65,3.17,2.71,1.08.94,1.58,1.38,1.87,1.63l-.06-3.32c-.03-.52-.08-.77-.51-.83-.12-.03-.24-.03-.39-.04-.13,0-.18-.07-.18-.11,0-.08.08-.11.18-.11.36,0,1.03.03,1.46.03.24,0,.75-.03,1.13-.03.17,0,.21.04.21.1,0,.04-.03.11-.16.12-.12,0-.15,0-.22.03-.33.04-.43.18-.47.78-.08,1.77-.12,3.69-.13,5.57,0,.54-.07.64-.21.64-.16,0-.5-.24-1.27-.87-.68-.57-1.44-1.23-1.91-1.65-.52-.47-1.35-1.18-2.19-1.94l.1,3.04c.03.65.04.93.33,1,.18.04.29.05.48.07.17.03.21.05.21.11,0,.08-.07.11-.24.11-.27,0-.57-.03-1.25-.03-.27,0-1.06.03-1.38.03-.16,0-.22-.03-.22-.11,0-.06.04-.1.18-.11.1,0,.15,0,.28-.03.4-.06.48-.28.52-1.14.08-1.94.08-4.13.12-5.38"/>
      <path class="cls-2" d="M35.98,81.78c0-1.47,0-1.71-.03-2.01-.03-.25-.08-.43-.33-.46-.07-.03-.18-.03-.3-.04-.13,0-.18-.04-.18-.11,0-.05.03-.11.22-.11.38,0,1.42.03,1.45.03.05,0,1.28-.03,1.65-.03.18,0,.19.04.19.11,0,.08-.08.1-.19.11-.1,0-.11,0-.22.03-.26.06-.35.15-.39.48-.03.3-.03.53-.03,1.99v1.65c0,.72,0,1.6.05,2.01.03.24.08.4.38.47.13.03.29.03.4.04.16,0,.21.07.21.12,0,.04-.04.1-.21.1-.68,0-1.79-.03-1.84-.03-.03,0-1.15.03-1.45.03-.17,0-.23-.03-.23-.11,0-.06.06-.11.17-.11.08,0,.18,0,.32-.03.21-.04.29-.24.32-.51.05-.39.07-1.04.07-1.98v-1.64h-.02Z"/>
      <path class="cls-2" d="M39.98,80.03c-.28-.61-.37-.66-.69-.72,0,0-.17-.03-.23-.03-.1,0-.13-.07-.13-.11,0-.07.07-.11.18-.11.53,0,1.11.03,1.49.03s.91-.03,1.73-.03c.17,0,.22.04.22.11,0,.06-.06.1-.14.11-.11,0-.14.03-.24.03-.29.03-.33.13-.33.23,0,.12.04.28.22.69.43,1.09,1.03,2.43,1.46,3.47.39-.81,1.15-2.6,1.6-3.69.11-.27.14-.39.14-.47,0-.13-.06-.18-.25-.21-.12-.03-.29-.04-.39-.06-.14-.03-.18-.05-.18-.11,0-.07.06-.11.21-.11.68,0,1.17.03,1.31.03.15,0,.81-.03,1.13-.03.15,0,.22.04.22.11s-.06.1-.18.11c-.12,0-.26,0-.41.08-.23.1-.36.28-.63.83-.39.8-.76,1.6-1.33,2.81-.63,1.33-1.04,2.14-1.3,2.64-.28.54-.39.66-.52.66s-.21-.13-.39-.57l-2.57-5.69Z"/>
      <path class="cls-2" d="M48.17,81.78c0-1.56,0-1.73-.03-2.03-.03-.24-.12-.39-.35-.43-.08-.03-.19-.03-.29-.03-.14,0-.16-.07-.16-.12s.05-.1.21-.1c.58,0,1.04.03,1.45.03.18,0,2.67,0,2.82,0,.18,0,.39,0,.55-.04.07-.03.12-.03.15-.03.06,0,.08.04.07.1-.03.12-.06.24-.08.46,0,.24-.03.43-.06,1.02,0,.08-.04.15-.11.15-.06,0-.1-.04-.11-.13-.03-.13-.03-.21-.06-.35-.05-.22-.18-.35-.64-.39-.36-.03-1.15-.04-1.45-.04-.05,0-.08.03-.08.1v1.98c0,.07,0,.08.08.08.29,0,.97,0,1.34,0,.53-.03.66-.05.78-.24.04-.08.08-.12.13-.12.07,0,.08.07.08.12,0,.11-.07.52-.08.87,0,.21-.03.71-.03.82,0,.13-.03.17-.1.17-.06,0-.1-.04-.11-.15,0-.05,0-.12-.03-.18-.06-.29-.17-.47-.68-.5-.3-.03-1.04-.03-1.34-.03-.06,0-.07.03-.07.08v.68c0,.32,0,.76,0,1.14,0,.66.13.82,1.23.82.25,0,.63,0,.9-.11.28-.11.38-.33.47-.77.03-.11.07-.16.13-.16.08,0,.08.08.08.19,0,.41-.1,1.17-.14,1.35-.08.24-.15.25-.51.25-1.45,0-2.14-.06-3.18-.06-.46,0-.93.03-1.48.03-.18,0-.23-.06-.23-.12,0-.04.03-.1.19-.1.1,0,.18,0,.28-.03.32-.06.35-.43.38-1.08,0-.36,0-.88,0-1.4v-1.66h.02Z"/>
      <path class="cls-2" d="M54.74,81.78c0-1.47,0-1.6-.03-1.91-.03-.4-.19-.53-.4-.55-.18-.03-.26-.03-.33-.04-.12,0-.17-.05-.17-.11,0-.05.03-.11.19-.11.39,0,1.38.03,1.51.03.17,0,1.18-.03,1.67-.03.98,0,1.65.1,2.03.32.52.26.92.73.92,1.47s-.5,1.33-1.29,1.84c.51.78,1.2,1.81,1.8,2.47.5.58.73.72,1.03.76.1.03.18.03.26.03.1,0,.15.07.15.12,0,.08-.11.1-.19.1h-.84c-1.13,0-1.59-.11-1.95-.33-.28-.18-.58-.57-.93-1.13-.46-.76-.62-1.08-.8-1.35,0-.03-.05-.06-.11-.06h-.65s-.08.02-.08.07v.58c0,.7.03,1.16.04,1.44.03.24.08.43.37.51.13.04.33.05.44.07.18,0,.18.07.18.12,0,.06-.04.1-.18.1-.66,0-1.81-.03-1.87-.03-.11,0-1.13.03-1.44.03-.16,0-.19-.06-.19-.12s.07-.1.18-.1c.08,0,.23,0,.33-.03.19-.04.28-.21.3-.54.04-.39.06-1.02.06-1.94v-1.66h0ZM56.53,82.37c0,.07.04.11.08.14.18.1.52.13.8.13.22,0,.44-.04.59-.15.18-.13.33-.51.33-1.12,0-1.33-.91-1.65-1.4-1.65-.14,0-.3,0-.36.03-.04.03-.07.03-.07.11v2.5h.02Z"/>
      <path class="cls-2" d="M62.6,86.02c-.18-.07-.22-.21-.22-.38,0-.82.03-1.16.05-1.45.03-.18.08-.21.13-.21s.08.04.1.14c0,.08,0,.17.03.25.13.82.92,1.28,1.71,1.28.88,0,1.15-.41,1.15-.79s-.13-.68-.95-1.23l-.59-.4c-1.16-.8-1.48-1.43-1.48-2.3,0-1.08.95-1.99,2.53-1.99.44,0,.73.03,1.18.11.15.03.33.07.48.11.1.03.12.05.12.14,0,.35-.03.51-.03,1.38,0,.17-.03.23-.11.23-.05,0-.11-.03-.13-.18,0-.11-.04-.32-.15-.52-.19-.35-.7-.68-1.35-.68-.81,0-1.08.46-1.08.86s.19.69.73,1.03l.55.35c1.4.88,1.79,1.41,1.79,2.35,0,.75-.33,1.4-1.08,1.81-.58.33-1.25.38-1.76.38-.76,0-1.26-.12-1.63-.28"/>
      <path class="cls-2" d="M68.93,81.78c0-1.47,0-1.71-.03-2.01-.03-.25-.08-.43-.33-.46-.07-.03-.18-.03-.3-.04-.13,0-.18-.04-.18-.11,0-.05.03-.11.22-.11.38,0,1.42.03,1.45.03.05,0,1.28-.03,1.65-.03.18,0,.19.04.19.11,0,.08-.08.1-.19.11-.1,0-.11,0-.22.03-.26.06-.35.15-.39.48-.03.3-.03.53-.03,1.99v1.65c0,.72,0,1.6.05,2.01.03.24.08.4.38.47.13.03.29.03.4.04.16,0,.21.07.21.12,0,.04-.04.1-.21.1-.68,0-1.79-.03-1.84-.03-.03,0-1.15.03-1.45.03-.17,0-.23-.03-.23-.11,0-.06.06-.11.17-.11.08,0,.18,0,.32-.03.21-.04.29-.24.32-.51.05-.39.07-1.04.07-1.98v-1.64h-.02Z"/>
      <path class="cls-2" d="M76.86,83.43c0,.72,0,1.55.04,1.95.03.24.1.48.39.52.12.03.23.03.39.04.18.03.22.07.22.13,0,.06-.06.08-.23.08-.68,0-1.69-.03-1.83-.03s-1.18.03-1.48.03c-.17,0-.23-.03-.23-.1s.08-.11.19-.12c.1,0,.19,0,.32-.03.22-.04.28-.23.32-.5.04-.4.04-1.06.04-1.98v-3.61c-.37,0-1,0-1.48.03-.53.03-.72.16-.83.54-.03.07-.04.14-.08.21-.03.07-.06.14-.12.14-.08,0-.1-.08-.08-.19.05-.46.14-.94.22-1.38.03-.14.08-.21.13-.21.05,0,.13.04.28.07.14.03.73.08,1.11.08h4.34c.28,0,.46-.03.58-.04.18-.03.26-.06.32-.06.11,0,.1.06.1.33,0,.11-.07,1.08-.08,1.31,0,.15-.07.19-.12.19-.06,0-.1-.05-.11-.17,0-.12,0-.18,0-.23-.03-.29-.15-.5-.66-.55-.35-.03-.87-.07-1.65-.07v3.62h-.03Z"/>
      <path class="cls-2" d="M83.11,83.72c0-.51-.11-.68-.28-1-.43-.77-1.31-2.2-1.63-2.66-.4-.61-.5-.68-.83-.73-.03,0-.14-.03-.21-.04-.11-.03-.14-.07-.14-.12,0-.07.08-.11.19-.11.46,0,1.18.03,1.56.03.15,0,.84-.03,1.48-.03.12,0,.18.04.18.1,0,.07-.03.1-.18.13-.29.03-.36.11-.36.18,0,.07.03.14.1.26.15.27,1.33,2.3,1.48,2.58.72-1.27,1.08-1.95,1.26-2.34.1-.21.16-.32.16-.43s-.04-.21-.38-.25c-.08,0-.15-.04-.15-.12,0-.07.06-.11.22-.11.41,0,.75.03,1.15.03.12,0,.95-.03,1.14-.03.11,0,.18.03.18.08,0,.08-.06.12-.18.13-.14,0-.25.03-.37.07-.28.11-.39.25-.57.47-.33.38-1.73,2.72-1.85,3.11-.14.4-.15.79-.15.87v.66c0,.14,0,.48.03.88.03.23.03.48.4.57.18.04.37.04.55.06.11,0,.16.05.16.11,0,.05-.03.11-.18.11-.72,0-1.6-.03-1.94-.03-.28,0-1.12.03-1.57.03-.14,0-.19-.04-.19-.12,0-.04.04-.1.18-.1.15,0,.25-.03.33-.04.26-.07.33-.24.35-.51.03-.4.03-.8.03-.94v-.73h0Z"/>
      <path class="cls-2" d="M91.12,82.65c0-1.96,1.34-3.72,4.2-3.72,2.47,0,4.02,1.66,4.02,3.5,0,2.2-1.53,3.86-4.09,3.86-2.89,0-4.13-1.98-4.13-3.64M97.26,82.86c0-1.43-.52-3.3-2.28-3.3-.83,0-1.78.43-1.78,2.63,0,1.73.69,3.46,2.31,3.46.59,0,1.74-.23,1.74-2.79"/>
      <path class="cls-2" d="M101.28,81.78c0-1.56,0-1.63-.03-1.93-.03-.33-.12-.5-.38-.53-.1-.03-.23-.03-.35-.04-.1-.03-.18-.04-.18-.11,0-.08.07-.11.25-.11.57,0,1.12.03,1.52.03.18,0,2.78,0,2.92,0,.19,0,.46-.04.54-.07.07-.03.14-.04.17-.04.07,0,.08.04.07.08,0,.08-.06.29-.08.51-.03.25-.04.53-.06.98,0,.13-.04.17-.12.17-.07,0-.1-.07-.11-.15,0-.12,0-.18-.04-.3-.05-.23-.18-.35-.64-.39-.35-.03-1.25-.04-1.54-.04-.07,0-.08.03-.08.1v2.06c0,.07,0,.11.08.11.3,0,.98,0,1.35,0,.54-.03.65-.04.78-.26.04-.07.08-.1.13-.1.07,0,.07.08.07.13,0,.11-.04.48-.08.83,0,.21,0,.71,0,.82,0,.1-.03.18-.1.18-.05,0-.1-.04-.11-.17,0-.07-.03-.12-.03-.18-.03-.3-.14-.46-.64-.48-.32-.03-1.08-.04-1.38-.04-.06,0-.07.03-.07.08v.68c0,.91,0,1.46.05,1.87.03.28.08.43.47.48.13.03.25.03.33.03.15,0,.22.05.22.11,0,.05-.03.11-.22.11-.52,0-.52-.03-1.73-.03-.79,0-1.4.03-1.62.03-.14,0-.19-.04-.19-.1,0-.04,0-.1.17-.12.08,0,.17,0,.29-.03.26-.03.32-.28.35-.69.04-.54.04-.88.04-1.79v-1.67Z"/>
      <path class="cls-2" d="M112.48,82.74c0,1.49.23,2.13.83,2.55.44.29.82.3,1.08.3.35,0,.82-.08,1.19-.4.61-.52.61-1.66.61-2.78v-1.3c0-1.59,0-1.88-.03-2.23-.03-.41-.11-.59-.47-.66-.12-.03-.18-.03-.4-.04-.14,0-.19-.04-.19-.11s.06-.11.25-.11c.62,0,1.28.03,1.45.03.19,0,.9-.03,1.43-.03.17,0,.23.03.23.11,0,.05-.04.1-.18.11-.12,0-.18,0-.33.04-.29.06-.38.22-.41.66-.03.35-.03.63-.03,2.23v1.06c0,1.23-.05,2.57-1.11,3.43-.68.57-1.52.72-2.25.72-.95,0-1.91-.14-2.58-.73-.58-.48-1.01-1.27-1.01-2.83v-1.65c0-1.68,0-1.98-.03-2.33-.03-.3-.08-.44-.33-.52-.12-.04-.37-.07-.47-.08-.17,0-.23-.06-.23-.12,0-.07.08-.1.29-.1.47,0,1.56.03,1.66.03.08,0,1.38-.03,1.77-.03.18,0,.24.03.24.1,0,.08-.05.11-.19.12-.1,0-.25.03-.36.04-.3.07-.36.29-.38.64s-.03.86-.03,2.24v1.62h-.02Z"/>
      <path class="cls-2" d="M123.28,83.43c0,.72,0,1.55.04,1.95.03.24.1.48.39.52.12.03.23.03.39.04.18.03.22.07.22.13,0,.06-.06.08-.23.08-.68,0-1.69-.03-1.83-.03s-1.18.03-1.48.03c-.17,0-.23-.03-.23-.1s.08-.11.19-.12c.1,0,.19,0,.32-.03.22-.04.28-.23.32-.5.04-.4.04-1.06.04-1.98v-3.61c-.37,0-1,0-1.48.03-.53.03-.72.16-.83.54-.03.07-.04.14-.08.21-.03.07-.06.14-.12.14-.08,0-.1-.08-.08-.19.05-.46.14-.94.22-1.38.03-.14.08-.21.13-.21.05,0,.13.04.28.07.14.03.73.08,1.11.08h4.34c.28,0,.46-.03.58-.04.18-.03.26-.06.32-.06.11,0,.1.06.1.33,0,.11-.07,1.08-.08,1.31,0,.15-.07.19-.12.19-.06,0-.1-.05-.11-.17,0-.12,0-.18,0-.23-.03-.29-.15-.5-.66-.55-.35-.03-.87-.07-1.65-.07v3.62h-.03Z"/>
      <path class="cls-2" d="M127.49,84.37c-.07,0-.1.07-.11.1l-.23.55c-.1.24-.17.46-.17.58,0,.32.41.33.66.35.14,0,.18.05.18.1,0,.08-.06.12-.18.12-.48,0-.8-.03-1.35-.03-.11,0-.73.03-1.2.03-.15,0-.19-.04-.19-.11s.06-.11.18-.11c.47-.06.72-.18,1-.83l2.6-5.55c.23-.5.33-.64.46-.64.11,0,.19.14.38.51.24.53,1.92,4.05,2.57,5.49.33.69.51.94.88,1,.08,0,.17.03.22.03.12,0,.18.05.18.11,0,.08-.08.11-.19.11-1.09,0-2.23-.03-2.79-.03-.13,0-.19-.04-.19-.1,0-.07.07-.08.13-.11.08-.03.18-.04.13-.17l-.6-1.33s-.05-.06-.08-.06h-2.28ZM129.42,83.51c.07,0,.07-.03.05-.04l-.86-1.94c-.03-.06-.03-.03-.06,0l-.8,1.93s0,.04.03.04h1.63Z"/>
      <path class="cls-2" d="M139.11,81.91s.07,0,.07-.05v-.19c0-1.46,0-1.58-.03-1.88-.03-.24-.1-.41-.43-.47-.08,0-.22-.03-.33-.03-.13,0-.18-.08-.18-.11,0-.07.04-.11.19-.11.58,0,1.52.03,1.57.03.04,0,1.26-.03,1.68-.03.18,0,.19.04.19.11,0,.06-.03.11-.15.11-.18.03-.19.03-.3.04-.25.03-.33.18-.36.48-.03.3-.03.52-.03,1.98v1.65c0,.91,0,1.58.05,1.96.03.33.12.48.41.52.13.03.32.03.4.03.13,0,.18.05.18.12,0,.08-.1.1-.22.1-.66,0-1.73-.03-1.88-.03s-.92.03-1.42.03c-.18,0-.21-.06-.21-.11,0-.04.06-.11.18-.11.12,0,.19,0,.28-.03.24-.04.3-.22.33-.53.04-.39.06-.93.06-1.84v-.72s-.03-.07-.07-.07h-2.86s-.07,0-.07.07v1c0,.9,0,1.19.05,1.58.03.28.15.47.44.5.14.03.29.03.37.04.13,0,.18.05.18.12,0,.04-.03.1-.18.1-.54,0-1.82-.03-1.88-.03-.04,0-1.18.03-1.48.03-.11,0-.21-.03-.21-.1s.03-.11.17-.12c.11,0,.16,0,.28-.03.25-.03.33-.28.36-.57.04-.4.06-1.01.06-1.92v-1.62c0-1.47,0-1.66-.03-1.96-.03-.32-.1-.48-.47-.54-.14-.03-.18-.03-.29-.03-.15,0-.17-.08-.17-.12,0-.07.1-.1.21-.1.58,0,1.44.03,1.66.03.4,0,1.15-.03,1.57-.03.18,0,.21.06.21.12,0,.04-.04.08-.18.1-.13,0-.22.03-.3.04-.28.05-.33.28-.35.53-.03.3-.03.69-.03,1.81v.19c0,.05.03.05.07.05h2.89Z"/>
      <path class="cls-1" d="M30.17,65.17l3.34-4.06c-4.05-2.43-5.42-4.96-5.42-4.96l-.71.56-7.21,4.72-1.48,2.98-9.05,2.82-6.26.23-3.39,5.78h10.64l5.27-2.21,8.72-1.07,5.53-4.8Z"/>
      <polygon class="cls-1" points="47.27 70.51 46.72 68.85 40.19 73.19 52.91 73.16 54.66 73.15 64.06 67.19 60.74 68.29 65.16 63.32 57.85 68.45 47.27 70.51"/>
      <path class="cls-1" d="M33.85,65.53l-2.94.74-.74,4.06-2.94,2.4.27.45,3.23-2.11,1.84-.37v-1.1l2.02-2.21v-1.48l1.66-.92,1.66,2.21h1.1l.92-3.87c-3.23-.7-4.69-1.4-4.69-1.4l-.84,2.51-.56,1.09Z"/>
      <path class="cls-1" d="M42.51,56.51l-3.96,2.08s.78.37,1.19.54l2.77-2.62Z"/>
      <polygon class="cls-1" points="78.93 73.16 80.72 73.19 91.68 63.51 78.93 73.16"/>
      <polygon class="cls-1" points="85.24 39.38 77.69 45.83 77.69 47.85 76.03 50.43 67 60.56 72.9 56.33 85.05 46.01 86.16 43.43 84.69 42.51 90.21 38.64 85.24 39.38"/>
      <polygon class="cls-1" points="71.98 29.8 65.35 32.45 65.36 38.54 66.63 37.91 68.66 34.95 71.79 32.56 78.98 26.48 73.82 28.33 71.98 29.8"/>
      <path class="cls-1" d="M49.14,55.4l.74-.37,1.84-3.87,7.56-6.92v-7.44l-5.52,1.48-3.13,3.32-.74,2.58h-2.4l-2.76,3.5-3.66,2.08-6.84,1.6-1.35,1.06s1.64,3.25,3.48,4.68l1-1.5,11.05-2.02.74,1.83Z"/>
      <path class="cls-1" d="M25.85,45.01c0,9.94,6.12,17.74,18.36,17.74,4.38,0,8-.91,11.09-2.85v-3.28h-.57c-1.81,2.05-5.81,4.09-9.91,4.09-9.53,0-14-7.37-14-15.7,0-9.94,5.71-16.08,14-16.08,4.19,0,6.9,1.29,9.72,4.04h.62l1.1-3.8c-3.04-1.33-6.81-2.34-11.43-2.34-11.05,0-18.98,6.95-18.98,18.18"/>
      <rect class="cls-1" x="60.17" y="27.5" width="4.56" height="34.6"/>
      <path class="cls-1" d="M10.54,60.56c-3.67,0-6.23-2.19-7.79-5.37h-.38l-1.05,4.57c2.37,1.53,5.06,3.01,8.4,3.01,6.73,0,12.61-3.29,12.61-10.71,0-5.75-4.3-8.08-8.45-9.75-4.01-1.57-7.74-2.75-7.74-7.22,0-3.07,2.28-5.43,5.36-5.93h.05c.38-.07.78-.11,1.18-.11,3.06,0,5.25,1.52,6.25,4.47h.47l1.42-4.13c-1.89-1.69-4.31-2.5-7.38-2.53h-.19c-6.05,0-11.01,3.16-11.01,9.66s5.39,8.03,9.94,9.79c3.34,1.38,6.02,3.13,6.02,6.79,0,3.99-3.11,7.46-7.69,7.46"/>
      <path class="cls-1" d="M141.87,72.94c0-.8-.04-2.22-.07-3.02,0-.21-.02-.41-.02-.62-.03-.69-.07-1.38-.11-2.07,0-.11-.02-.21-.02-.33-.06-.79-.13-1.58-.21-2.37-.02-.16-.04-.32-.05-.49-.08-.68-.17-1.36-.26-2.04-.02-.13-.03-.25-.05-.38-.12-.8-.25-1.6-.4-2.39-.02-.07-.02-.14-.04-.21-.14-.75-.29-1.48-.45-2.21-.02-.1-.05-.21-.07-.3-.36-1.61-.78-3.2-1.24-4.77-.02-.05-.03-.11-.05-.16C129.91,21.75,102.26,0,69.53,0c-17.05,0-32.72,5.9-45.08,15.77C35.61,7.97,49.19,3.4,63.84,3.4c25.04,0,46.96,13.35,59.03,33.33l-28.42-16.51h-1.48l3.32,2.21-4.42-1.1-.37,2.76,5.16,3.13,14.18,11.6,17.5,9.21h.02c.24.63.46,1.26.68,1.89l-.14-.05-7.9-1.57-2.76-1.19-4.98-.46,1.29,1.38,3.68,1.1,2.85,2.02.46,1.29,3.13,2.31-9.31-2.5-5.06-.27-3.5-1.75-3.23-3.68,4.06,2.4,2.94,1.19-.74-1.38-2.49-1.01-1.68-4.88-4.06-5.9-4.79-1.48-1.84,1.1-2.21,8.66-1.48,2.94-.37,1.48.37,1.66-2.4,2.02-2.11,4.2-1.03-7.33,3.32-3.32-4.6,2.58-1.1,4.6-4.42,4.42-.18,1.1-12.89,11.24-2.21.56-2.53,1.74,4,.05,1.48-1.8,6.08-2.58,7.74-6.63,3.87-.18,2.05-1.92,1.82.07,4.24,3.5,2.21-.56,1.05,1.11-7.05,5.65-2.63,3.24,55.87-.19Z"/>
    </g>
  </g>
</svg>