<?xml version="1.0" encoding="UTF-8"?>
<svg id="Layer_1" xmlns="http://www.w3.org/2000/svg" width="1033.22" height="286.52" version="1.1" viewBox="0 0 1033.22 286.52">
  <!-- Generator: Adobe Illustrator 29.4.0, SVG Export Plug-In . SVG Version: 2.1.0 Build 152)  -->
  <defs>
    <style type='text/css'><![CDATA[
      @import url("https://fonts.googleapis.com/css2?family=Public+Sans:ital,wght@0,100..900;1,100..900&display=swap");
      
      .st0, .st1, .st2, .st3, .st4, .st5 {
        font-family: PublicSans-Bold, 'Public Sans';
        font-weight: 700;
      }

      .st0, .st1, .st3, .st6, .st7, .st8, .st5, .st9, .st10, .st11 {
        stroke: #000;
        stroke-miterlimit: 10;
      }

      .st0, .st1, .st3, .st5 {
        font-size: 30px;
      }

      .st0, .st7 {
        fill: #28666e;
      }

      .st0, .st5 {
        stroke-width: .5px;
      }

      .st1, .st3, .st7, .st8, .st9, .st10, .st11 {
        stroke-width: .75px;
      }

      .st1, .st11 {
        fill: #cd5334;
      }

      .st2, .st4 {
        font-size: 24px;
      }

      .st3, .st10 {
        fill: #ffd23f;
      }

      .st6 {
        fill: none;
        stroke-width: 2px;
      }

      .st4 {
        fill: #fff;
      }

      .st8 {
        fill: #dee2e6;
      }

      .st5, .st9 {
        fill: #533747;
      }
    ]]></style>
  </defs>
  <g>
    <rect class="st8" x="24.09" y="117.25" width="100" height="100" rx="5.6" ry="5.6"/>
    <text class="st2" transform="translate(38.82 148.79)"><tspan x="0" y="0">Direct</tspan><tspan x="1.59" y="28.8">Dates</tspan><tspan x="18.65" y="57.6">XY</tspan></text>
  </g>
  <g>
    <rect class="st8" x="1" y="36.67" width="123.72" height="67.52" rx="5.12" ry="5.12"/>
    <text class="st2" transform="translate(11.55 66.1)"><tspan x="0" y="0">Artifacts </tspan><tspan x="34.69" y="28.8">XY</tspan></text>
  </g>
  <g>
    <rect class="st10" x="502.35" y="36.52" width="40" height="250" rx="5" ry="5"/>
    <text class="st2" transform="translate(515.16 171.66) scale(1.02 1)"><tspan x="0" y="0">x</tspan></text>
  </g>
  <line class="st6" x1="502.35" y1="95.03" x2="484.09" y2="95.03"/>
  <line class="st6" x1="502.35" y1="225.77" x2="484.09" y2="225.77"/>
  <line class="st6" x1="542.48" y1="164.56" x2="567.48" y2="164.56"/>
  <g>
    <rect class="st9" x="567.48" y="36.52" width="150" height="250" rx="5" ry="5"/>
    <text class="st4" transform="translate(575.28 157.25)"><tspan x="0" y="0">Multi-Layer </tspan><tspan x="2.94" y="28.8">Perceptron</tspan></text>
  </g>
  <g>
    <rect class="st9" x="732.35" y="36.14" width="150" height="250" rx="5" ry="5"/>
    <text class="st4" transform="translate(754.66 157.08)"><tspan x="0" y="0">Gaussian</tspan><tspan x="1.22" y="28.8">Mixtures</tspan></text>
  </g>
  <g>
    <rect class="st11" x="907.84" y="36.14" width="125" height="250" rx="5.2" ry="5.2"/>
    <text class="st4" transform="translate(935.08 157.08)"><tspan x="0" y="0">Direct</tspan><tspan x="1.59" y="28.8">Dates</tspan></text>
  </g>
  <line class="st6" x1="717.48" y1="160.75" x2="732.48" y2="160.75"/>
  <line class="st6" x1="882.35" y1="160.37" x2="907.35" y2="160.37"/>
  <text class="st3" transform="translate(446.03 26.59)"><tspan x="0" y="0">INPUT</tspan></text>
  <text class="st5" transform="translate(688.69 26.22)"><tspan x="0" y="0">MDN</tspan></text>
  <text class="st1" transform="translate(909.19 26.22)"><tspan x="0" y="0">OUTPUT</tspan></text>
  <g>
    <rect class="st7" x="149.09" y="36.14" width="270" height="120" rx="5.06" ry="5.06"/>
    <text class="st4" transform="translate(242.76 92.08)"><tspan x="0" y="0">Spatial </tspan><tspan x="-30.89" y="28.8">Aggregation</tspan></text>
  </g>
  <g>
    <rect class="st7" x="148.96" y="166.52" width="270" height="120" rx="8.83" ry="8.83"/>
    <text class="st4" transform="translate(209.02 222.46)"><tspan x="0" y="0">Spatial Basis</tspan><tspan x="18.17" y="28.8">Functions</tspan></text>
  </g>
  <text class="st0" transform="translate(149.09 26.59)"><tspan x="0" y="0">PRE-PROCESSING</tspan></text>
  <g>
    <rect class="st10" x="444.09" y="166.52" width="48.17" height="120" rx="5.49" ry="5.49"/>
    <text class="st2" transform="translate(459.96 235.02)"><tspan x="0" y="0">B</tspan></text>
  </g>
  <g>
    <rect class="st10" x="444.22" y="36.14" width="48.03" height="120" rx="5.48" ry="5.48"/>
    <text class="st2" transform="translate(459.52 105.66)"><tspan x="0" y="0">A</tspan></text>
  </g>
  <line class="st6" x1="419.09" y1="226.11" x2="444.09" y2="226.11"/>
  <line class="st6" x1="419.09" y1="96.14" x2="444.09" y2="96.14"/>
  <line class="st6" x1="148.72" y1="72.26" x2="123.58" y2="72.26"/>
  <line class="st6" x1="123.96" y1="133.61" x2="148.96" y2="133.61"/>
  <line class="st6" x1="124.09" y1="186.12" x2="149.09" y2="186.12"/>
</svg>