<?xml version="1.0" encoding="UTF-8"?><svg id="Layer_1" xmlns="http://www.w3.org/2000/svg" width="1009.5" height="378.66" viewBox="0 0 1009.5 378.66"><defs><style>.cls-1{letter-spacing:0em;}.cls-2,.cls-3,.cls-4,.cls-5,.cls-6,.cls-7{font-family:PublicSans-Bold, 'Public Sans';font-weight:700;}.cls-2,.cls-3,.cls-5,.cls-8,.cls-9,.cls-10,.cls-7,.cls-11,.cls-12,.cls-13{stroke:#000;stroke-miterlimit:10;}.cls-2,.cls-3,.cls-5,.cls-7{font-size:30px;}.cls-2,.cls-9{fill:#28666e;}.cls-2,.cls-7{stroke-width:.5px;}.cls-14{letter-spacing:0em;}.cls-15{letter-spacing:0em;}.cls-3,.cls-5,.cls-9,.cls-10,.cls-11,.cls-12,.cls-13{stroke-width:.75px;}.cls-3,.cls-13{fill:#cd5334;}.cls-16{letter-spacing:0em;}.cls-17{letter-spacing:0em;}.cls-18{letter-spacing:0em;}.cls-19{letter-spacing:-.02em;}.cls-4,.cls-6{font-size:24px;}.cls-5,.cls-12{fill:#ffd23f;}.cls-20{letter-spacing:-.02em;}.cls-21{letter-spacing:-.02em;}.cls-22{letter-spacing:0em;}.cls-23{letter-spacing:0em;}.cls-24{letter-spacing:-.02em;}.cls-25{letter-spacing:-.02em;}.cls-26{letter-spacing:0em;}.cls-27{letter-spacing:-.02em;}.cls-28{letter-spacing:-.02em;}.cls-29{letter-spacing:0em;}.cls-30{letter-spacing:0em;}.cls-31{letter-spacing:0em;}.cls-32{letter-spacing:-.02em;}.cls-33{letter-spacing:-.02em;}.cls-34{letter-spacing:0em;}.cls-35{letter-spacing:0em;}.cls-8{fill:none;stroke-width:2px;}.cls-6{fill:#fff;}.cls-36{letter-spacing:0em;}.cls-10{fill:#dee2e6;}.cls-7,.cls-11{fill:#533747;}.cls-37{letter-spacing:-.02em;}.cls-38{letter-spacing:0em;}.cls-39{letter-spacing:-.01em;}.cls-40{letter-spacing:0em;}.cls-41{letter-spacing:0em;}.cls-42{letter-spacing:-.03em;}.cls-43{letter-spacing:0em;}.cls-44{letter-spacing:0em;}.cls-45{letter-spacing:0em;}.cls-46{letter-spacing:0em;}.cls-47{letter-spacing:0em;}.cls-48{letter-spacing:0em;}.cls-49{letter-spacing:-.04em;}.cls-50{letter-spacing:0em;}.cls-51{letter-spacing:0em;}.cls-52{letter-spacing:-.02em;}.cls-53{letter-spacing:0em;}.cls-54{letter-spacing:0em;}.cls-55{letter-spacing:-.02em;}.cls-56{letter-spacing:-.01em;}.cls-57{letter-spacing:0em;}.cls-58{letter-spacing:0em;}.cls-59{letter-spacing:0em;}.cls-60{letter-spacing:-.01em;}.cls-61{letter-spacing:-.02em;}.cls-62{letter-spacing:0em;}.cls-63{letter-spacing:0em;}.cls-64{letter-spacing:-.06em;}.cls-65{letter-spacing:-.07em;}.cls-66{letter-spacing:0em;}</style></defs><rect class="cls-10" x=".38" y="113.25" width="100" height="100" rx="5.6" ry="5.6"/><text class="cls-4" transform="translate(24.4 144.79)"><tspan class="cls-19" x="0" y="0">T</tspan><tspan class="cls-29" x="14.41" y="0">r</tspan><tspan x="24.28" y="0">e</tspan><tspan class="cls-47" x="38.11" y="0">e</tspan><tspan x="51.88" y="0"> </tspan><tspan class="cls-47" x="-6.43" y="28.8">R</tspan><tspan class="cls-63" x="10.2" y="28.8">i</tspan><tspan x="16.68" y="28.8">n</tspan><tspan class="cls-56" x="30.91" y="28.8">g</tspan><tspan class="cls-46" x="45.73" y="28.8">s</tspan><tspan class="cls-41" x="58.21" y="28.8"> </tspan><tspan class="cls-37" x="9.56" y="57.6">X</tspan><tspan class="cls-21" x="26.37" y="57.6">Y</tspan></text><rect class="cls-10" x="125.38" y="310.5" width="123.72" height="67.52" rx="5.12" ry="5.12"/><text class="cls-4" transform="translate(133.24 339.94)"><tspan class="cls-23" x="0" y="0">C</tspan><tspan x="17.28" y="0">e</tspan><tspan class="cls-56" x="31.12" y="0">r</tspan><tspan x="40.74" y="0">ami</tspan><tspan class="cls-62" x="82.23" y="0">c</tspan><tspan class="cls-54" x="95.33" y="0">s</tspan><tspan x="107.81" y="0"> </tspan><tspan x="18.71" y="28.8">01</tspan><tspan class="cls-47" x="44.45" y="28.8">,</tspan><tspan x="51.02" y="28.8"> </tspan><tspan class="cls-37" x="56.44" y="28.8">X</tspan><tspan class="cls-21" x="73.25" y="28.8">Y</tspan></text><rect class="cls-12" x="478.63" y="35.75" width="40" height="250" rx="5" ry="5"/><text class="cls-4" transform="translate(491.44 170.9) scale(1.02 1)"><tspan x="0" y="0">x</tspan></text><line class="cls-8" x1="478.63" y1="95.03" x2="460.38" y2="95.03"/><line class="cls-8" x1="478.63" y1="225.77" x2="460.38" y2="225.77"/><line class="cls-8" x1="518.76" y1="164.56" x2="543.76" y2="164.56"/><rect class="cls-11" x="543.76" y="35.75" width="150" height="250" rx="5" ry="5"/><text class="cls-6" transform="translate(552.47 156.49)"><tspan x="0" y="0">M</tspan><tspan class="cls-63" x="22.02" y="0">u</tspan><tspan class="cls-49" x="36.37" y="0">l</tspan><tspan x="43.39" y="0">ti-</tspan><tspan class="cls-34" x="69.23" y="0">L</tspan><tspan class="cls-32" x="82.9" y="0">a</tspan><tspan class="cls-19" x="96.05" y="0">y</tspan><tspan x="109.19" y="0">er </tspan><tspan class="cls-20" x="2.47" y="28.8">P</tspan><tspan x="17.72" y="28.8">e</tspan><tspan class="cls-48" x="31.56" y="28.8">r</tspan><tspan class="cls-58" x="41.42" y="28.8">c</tspan><tspan x="54.52" y="28.8">e</tspan><tspan class="cls-33" x="68.35" y="28.8">p</tspan><tspan x="82.54" y="28.8">t</tspan><tspan class="cls-48" x="92.53" y="28.8">r</tspan><tspan x="102.4" y="28.8">on</tspan></text><rect class="cls-11" x="708.64" y="36.14" width="150" height="250" rx="5" ry="5"/><text class="cls-6" transform="translate(730.99 157.08)"><tspan x="0" y="0">Gau</tspan><tspan class="cls-26" x="46.09" y="0">s</tspan><tspan x="58.66" y="0">sian</tspan><tspan x="1.36" y="28.8">Mi</tspan><tspan class="cls-60" x="29.79" y="28.8">x</tspan><tspan class="cls-30" x="43.64" y="28.8">t</tspan><tspan class="cls-40" x="53.51" y="28.8">u</tspan><tspan class="cls-1" x="67.87" y="28.8">r</tspan><tspan class="cls-31" x="77.73" y="28.8">e</tspan><tspan class="cls-53" x="91.53" y="28.8">s</tspan></text><rect class="cls-13" x="884.13" y="36.14" width="125" height="250" rx="5.2" ry="5.2"/><text class="cls-6" transform="translate(920.65 142.68)"><tspan class="cls-19" x="0" y="0">T</tspan><tspan class="cls-29" x="14.41" y="0">r</tspan><tspan x="24.28" y="0">e</tspan><tspan class="cls-47" x="38.11" y="0">e</tspan><tspan class="cls-47" x="-.24" y="28.8">R</tspan><tspan class="cls-63" x="16.39" y="28.8">i</tspan><tspan x="22.87" y="28.8">ng</tspan><tspan x="-7.27" y="57.6">D</tspan><tspan class="cls-55" x="10.01" y="57.6">a</tspan><tspan class="cls-20" x="23.18" y="57.6">t</tspan><tspan class="cls-62" x="32.77" y="57.6">e</tspan><tspan class="cls-54" x="46.57" y="57.6">s</tspan></text><line class="cls-8" x1="693.76" y1="160.75" x2="708.76" y2="160.75"/><line class="cls-8" x1="858.64" y1="160.37" x2="883.64" y2="160.37"/><text class="cls-5" transform="translate(422.31 26.59)"><tspan x="0" y="0">INPUT</tspan></text><text class="cls-7" transform="translate(664.97 26.22)"><tspan x="0" y="0">MDN</tspan></text><text class="cls-3" transform="translate(885.62 26.22)"><tspan class="cls-57" x="0" y="0">O</tspan><tspan x="22.53" y="0">UTPUT</tspan></text><rect class="cls-9" x="125.38" y="165.77" width="270" height="120" rx="5.06" ry="5.06"/><text class="cls-6" transform="translate(150.78 221.71)"><tspan x="0" y="0">S</tspan><tspan class="cls-47" x="16.61" y="0">p</tspan><tspan class="cls-55" x="31.1" y="0">a</tspan><tspan x="44.27" y="0">tia</tspan><tspan class="cls-25" x="74.27" y="0">l</tspan><tspan class="cls-42" x="81.8" y="0">l</tspan><tspan class="cls-14" x="89.09" y="0">y</tspan><tspan class="cls-65" x="102.48" y="0">-</tspan><tspan class="cls-64" x="110.22" y="0">W</tspan><tspan x="132.13" y="0">e</tspan><tspan class="cls-59" x="145.97" y="0">i</tspan><tspan x="152.29" y="0">g</tspan><tspan class="cls-55" x="167.38" y="0">h</tspan><tspan class="cls-20" x="181.16" y="0">t</tspan><tspan x="190.75" y="0">ed</tspan><tspan class="cls-52" x="-9.13" y="28.8">F</tspan><tspan class="cls-47" x="5.11" y="28.8">e</tspan><tspan class="cls-55" x="18.87" y="28.8">a</tspan><tspan class="cls-14" x="32.03" y="28.8">t</tspan><tspan class="cls-63" x="41.91" y="28.8">u</tspan><tspan class="cls-29" x="56.26" y="28.8">r</tspan><tspan class="cls-35" x="66.12" y="28.8">e</tspan><tspan x="79.89" y="28.8"> </tspan><tspan class="cls-39" x="85.3" y="28.8">A</tspan><tspan class="cls-45" x="102.43" y="28.8">g</tspan><tspan x="117.37" y="28.8">g</tspan><tspan class="cls-48" x="132.45" y="28.8">r</tspan><tspan class="cls-54" x="142.31" y="28.8">e</tspan><tspan class="cls-25" x="155.98" y="28.8">g</tspan><tspan class="cls-55" x="170.71" y="28.8">a</tspan><tspan x="183.87" y="28.8">tion</tspan></text><rect class="cls-9" x="125.24" y="36.14" width="270" height="120" rx="8.83" ry="8.83"/><text class="cls-6" transform="translate(185.62 92.08)"><tspan x="0" y="0">S</tspan><tspan class="cls-66" x="16.61" y="0">p</tspan><tspan class="cls-27" x="31.1" y="0">a</tspan><tspan x="44.27" y="0">tial B</tspan><tspan class="cls-15" x="104" y="0">a</tspan><tspan x="117.48" y="0">si</tspan><tspan class="cls-16" x="136.54" y="0">s</tspan><tspan class="cls-51" x="18.2" y="28.8">F</tspan><tspan class="cls-22" x="32.68" y="28.8">u</tspan><tspan x="47.03" y="28.8">n</tspan><tspan class="cls-28" x="61.27" y="28.8">c</tspan><tspan x="74.01" y="28.8">tio</tspan><tspan class="cls-50" x="104.22" y="28.8">n</tspan><tspan class="cls-17" x="118.34" y="28.8">s</tspan></text><text class="cls-2" transform="translate(125.38 26.59)"><tspan x="0" y="0">PR</tspan><tspan class="cls-61" x="40.45" y="0">E</tspan><tspan x="58.89" y="0">-P</tspan><tspan class="cls-24" x="90.25" y="0">R</tspan><tspan class="cls-43" x="110.67" y="0">O</tspan><tspan x="133.27" y="0">C</tspan><tspan class="cls-44" x="154.81" y="0">E</tspan><tspan class="cls-36" x="174.06" y="0">S</tspan><tspan class="cls-38" x="195.07" y="0">S</tspan><tspan x="215.79" y="0">ING</tspan></text><rect class="cls-12" x="420.38" y="165.76" width="48.17" height="120" rx="5.49" ry="5.49"/><text class="cls-4" transform="translate(435.74 234.26)"><tspan x="0" y="0">A</tspan></text><rect class="cls-12" x="420.51" y="36.14" width="48.03" height="120" rx="5.48" ry="5.48"/><text class="cls-4" transform="translate(436.31 105.66)"><tspan x="0" y="0">B</tspan></text><line class="cls-8" x1="395.38" y1="226.11" x2="420.38" y2="226.11"/><line class="cls-8" x1="395.38" y1="96.14" x2="420.38" y2="96.14"/><line class="cls-8" x1="186.82" y1="310.77" x2="186.82" y2="285.77"/><line class="cls-8" x1="100.24" y1="133.61" x2="125.24" y2="133.61"/><line class="cls-8" x1="100.38" y1="186.12" x2="125.38" y2="186.12"/><rect class="cls-10" x="272.09" y="310.77" width="123.72" height="67.52" rx="5.12" ry="5.12"/><text class="cls-4" transform="translate(295 340.2)"><tspan class="cls-32" x="0" y="0">R</tspan><tspan x="16.26" y="0">oo</tspan><tspan class="cls-18" x="43.88" y="0">m</tspan><tspan class="cls-54" x="65.26" y="0">s</tspan><tspan x="77.74" y="0"> </tspan><tspan x="7.16" y="28.8">N</tspan><tspan class="cls-47" x="25.93" y="28.8">,</tspan><tspan x="32.5" y="28.8"> </tspan><tspan class="cls-37" x="37.91" y="28.8">X</tspan><tspan class="cls-21" x="54.73" y="28.8">Y</tspan></text><line class="cls-8" x1="333.95" y1="310.77" x2="333.95" y2="285.77"/></svg>