<?xml version="1.0" encoding="UTF-8"?><svg id="Layer_1" xmlns="http://www.w3.org/2000/svg" width="1050" height="450" viewBox="0 0 1050 450"><defs><style>.cls-1{letter-spacing:0em;}.cls-2{letter-spacing:0em;}.cls-3,.cls-4,.cls-5,.cls-6{stroke-miterlimit:10;}.cls-3,.cls-5,.cls-6{font-family:PublicSans-Bold, 'Public Sans';font-size:42.55px;font-weight:700;stroke:#000;}.cls-3,.cls-7{fill:#28666e;}.cls-8{letter-spacing:-.02em;}.cls-9{letter-spacing:0em;}.cls-10{letter-spacing:0em;}.cls-11{letter-spacing:-.02em;}.cls-12{letter-spacing:0em;}.cls-13{font-family:PublicSans-Regular, 'Public Sans';font-size:34.19px;}.cls-4{fill:none;stroke:#4d4d4d;stroke-width:.75px;}.cls-14{letter-spacing:-.02em;}.cls-5,.cls-15{fill:#533747;}.cls-16{letter-spacing:0em;}.cls-17{letter-spacing:-.02em;}.cls-18{letter-spacing:0em;}.cls-19{letter-spacing:0em;}.cls-20{letter-spacing:-.02em;}.cls-6,.cls-21{fill:#ffd23f;}.cls-22{letter-spacing:0em;}.cls-23{letter-spacing:0em;}.cls-24{letter-spacing:-.01em;}.cls-25{letter-spacing:0em;}.cls-26{letter-spacing:0em;}.cls-27{letter-spacing:-.02em;}.cls-28{letter-spacing:0em;}.cls-29{letter-spacing:-.01em;}.cls-30{letter-spacing:-.01em;}.cls-31{letter-spacing:0em;}.cls-32{letter-spacing:0em;}.cls-33{fill:#cd5334;}.cls-34{letter-spacing:0em;}.cls-35{letter-spacing:0em;}.cls-36{letter-spacing:-.01em;}.cls-37{letter-spacing:-.02em;}.cls-38{letter-spacing:-.01em;}.cls-39{letter-spacing:0em;}</style></defs><line class="cls-4" x1="580.86" y1="432.85" x2="525" y2="225"/><line class="cls-4" x1="582.1" y1="332.5" x2="525" y2="225"/><line class="cls-4" x1="467.02" y1="432.85" x2="525" y2="225"/><line class="cls-4" x1="468.27" y1="332.5" x2="525" y2="225"/><line class="cls-4" x1="730.71" y1="124.05" x2="525" y2="225"/><line class="cls-4" x1="679.84" y1="109.8" x2="525" y2="225"/><line class="cls-4" x1="694.09" y1="16.3" x2="525" y2="225"/><line class="cls-4" x1="615.62" y1="60.08" x2="525" y2="225"/><line class="cls-4" x1="435.86" y1="43.68" x2="525" y2="225"/><line class="cls-4" x1="328" y1="126.52" x2="525" y2="225"/><line class="cls-4" x1="389.98" y1="116.14" x2="525" y2="225"/><line class="cls-4" x1="375.14" y1="43.68" x2="525" y2="225"/><path class="cls-33" d="M525,248.24c-12.82,0-23.24-10.43-23.24-23.24s10.43-23.24,23.24-23.24,23.24,10.43,23.24,23.24-10.43,23.24-23.24,23.24Z"/><path d="M525,202.26c12.54,0,22.74,10.2,22.74,22.74s-10.2,22.74-22.74,22.74-22.74-10.2-22.74-22.74,10.2-22.74,22.74-22.74M525,201.26c-13.11,0-23.74,10.63-23.74,23.74s10.63,23.74,23.74,23.74,23.74-10.63,23.74-23.74-10.63-23.74-23.74-23.74h0Z"/><text class="cls-5" transform="translate(625.5 444.4)"><tspan x="0" y="0">Kn</tspan><tspan class="cls-37" x="55.74" y="0">o</tspan><tspan class="cls-10" x="79.55" y="0">t</tspan><tspan class="cls-22" x="97.12" y="0">s</tspan></text><path class="cls-15" d="M582.1,346.25c-7.58,0-13.75-6.17-13.75-13.75s6.17-13.75,13.75-13.75,13.75,6.17,13.75,13.75-6.17,13.75-13.75,13.75Z"/><path d="M582.1,319.26c7.3,0,13.25,5.94,13.25,13.25s-5.94,13.25-13.25,13.25-13.25-5.94-13.25-13.25,5.94-13.25,13.25-13.25M582.1,318.26c-7.87,0-14.25,6.38-14.25,14.25s6.38,14.25,14.25,14.25,14.25-6.38,14.25-14.25-6.38-14.25-14.25-14.25h0Z"/><path class="cls-15" d="M468.27,346.25c-7.58,0-13.75-6.17-13.75-13.75s6.17-13.75,13.75-13.75,13.75,6.17,13.75,13.75-6.17,13.75-13.75,13.75Z"/><path d="M468.27,319.26c7.3,0,13.25,5.94,13.25,13.25s-5.94,13.25-13.25,13.25-13.25-5.94-13.25-13.25,5.94-13.25,13.25-13.25M468.27,318.26c-7.87,0-14.25,6.38-14.25,14.25s6.38,14.25,14.25,14.25,14.25-6.38,14.25-14.25-6.38-14.25-14.25-14.25h0Z"/><path class="cls-15" d="M580.86,446.6c-7.58,0-13.75-6.17-13.75-13.75s6.17-13.75,13.75-13.75,13.75,6.17,13.75,13.75-6.17,13.75-13.75,13.75Z"/><path d="M580.86,419.6c7.3,0,13.25,5.94,13.25,13.25s-5.94,13.25-13.25,13.25-13.25-5.94-13.25-13.25,5.94-13.25,13.25-13.25M580.86,418.6c-7.87,0-14.25,6.38-14.25,14.25s6.38,14.25,14.25,14.25,14.25-6.38,14.25-14.25-6.38-14.25-14.25-14.25h0Z"/><path class="cls-15" d="M467.02,446.6c-7.58,0-13.75-6.17-13.75-13.75s6.17-13.75,13.75-13.75,13.75,6.17,13.75,13.75-6.17,13.75-13.75,13.75Z"/><path d="M467.02,419.6c7.3,0,13.25,5.94,13.25,13.25s-5.94,13.25-13.25,13.25-13.25-5.94-13.25-13.25,5.94-13.25,13.25-13.25M467.02,418.6c-7.87,0-14.25,6.38-14.25,14.25s6.38,14.25,14.25,14.25,14.25-6.38,14.25-14.25-6.38-14.25-14.25-14.25h0Z"/><path class="cls-21" d="M679.84,123.55c-7.58,0-13.75-6.17-13.75-13.75s6.17-13.75,13.75-13.75,13.75,6.17,13.75,13.75-6.17,13.75-13.75,13.75Z"/><path d="M679.84,96.56c7.3,0,13.25,5.94,13.25,13.25s-5.94,13.25-13.25,13.25-13.25-5.94-13.25-13.25,5.94-13.25,13.25-13.25M679.84,95.56c-7.87,0-14.25,6.38-14.25,14.25s6.38,14.25,14.25,14.25,14.25-6.38,14.25-14.25-6.38-14.25-14.25-14.25h0Z"/><path class="cls-21" d="M615.62,73.83c-7.58,0-13.75-6.17-13.75-13.75s6.17-13.75,13.75-13.75,13.75,6.17,13.75,13.75-6.17,13.75-13.75,13.75Z"/><path d="M615.62,46.83c7.3,0,13.25,5.94,13.25,13.25s-5.94,13.25-13.25,13.25-13.25-5.94-13.25-13.25,5.94-13.25,13.25-13.25M615.62,45.83c-7.87,0-14.25,6.38-14.25,14.25s6.38,14.25,14.25,14.25,14.25-6.38,14.25-14.25-6.38-14.25-14.25-14.25h0Z"/><path class="cls-21" d="M694.09,30.04c-7.58,0-13.75-6.17-13.75-13.75s6.17-13.75,13.75-13.75,13.75,6.17,13.75,13.75-6.17,13.75-13.75,13.75Z"/><path d="M694.09,3.05c7.3,0,13.25,5.94,13.25,13.25s-5.94,13.25-13.25,13.25-13.25-5.94-13.25-13.25,5.94-13.25,13.25-13.25M694.09,2.05c-7.87,0-14.25,6.38-14.25,14.25s6.38,14.25,14.25,14.25,14.25-6.38,14.25-14.25-6.38-14.25-14.25-14.25h0Z"/><path class="cls-21" d="M730.71,137.79c-7.58,0-13.75-6.17-13.75-13.75s6.17-13.75,13.75-13.75,13.75,6.17,13.75,13.75-6.17,13.75-13.75,13.75Z"/><path d="M730.71,110.8c7.3,0,13.25,5.94,13.25,13.25s-5.94,13.25-13.25,13.25-13.25-5.94-13.25-13.25,5.94-13.25,13.25-13.25M730.71,109.8c-7.87,0-14.25,6.38-14.25,14.25s6.38,14.25,14.25,14.25,14.25-6.38,14.25-14.25-6.38-14.25-14.25-14.25h0Z"/><text class="cls-6" transform="translate(731.79 37.13)"><tspan class="cls-31" x="0" y="0">C</tspan><tspan x="30.64" y="0">e</tspan><tspan class="cls-24" x="55.17" y="0">r</tspan><tspan x="72.23" y="0">ami</tspan><tspan class="cls-9" x="145.81" y="0">c</tspan><tspan class="cls-32" x="169.02" y="0">s</tspan></text><text class="cls-13" transform="translate(729.67 76.27)"><tspan x="0" y="0">S</tspan><tspan class="cls-25" x="22.91" y="0">p</tspan><tspan class="cls-17" x="43.05" y="0">a</tspan><tspan class="cls-35" x="61.22" y="0">tial </tspan><tspan class="cls-14" x="120.56" y="0">A</tspan><tspan class="cls-29" x="144.27" y="0">g</tspan><tspan x="165.11" y="0">g</tspan><tspan class="cls-12" x="186.4" y="0">r</tspan><tspan class="cls-1" x="199.49" y="0">e</tspan><tspan class="cls-30" x="218.74" y="0">g</tspan><tspan class="cls-17" x="239.52" y="0">a</tspan><tspan class="cls-38" x="257.69" y="0">t</tspan><tspan class="cls-19" x="270.53" y="0">es</tspan></text><text class="cls-13" transform="translate(625.5 397.24)"><tspan x="0" y="0">S</tspan><tspan class="cls-25" x="22.91" y="0">p</tspan><tspan class="cls-17" x="43.05" y="0">a</tspan><tspan class="cls-35" x="61.22" y="0">tial B</tspan><tspan class="cls-26" x="143.49" y="0">a</tspan><tspan x="162.22" y="0">si</tspan><tspan class="cls-1" x="187.99" y="0">s</tspan><tspan x="205.17" y="0"> </tspan><tspan class="cls-23" x="213.48" y="0">F</tspan><tspan class="cls-18" x="233.44" y="0">u</tspan><tspan x="253.52" y="0">n</tspan><tspan class="cls-20" x="273.24" y="0">c</tspan><tspan class="cls-34" x="291.04" y="0">tio</tspan><tspan class="cls-16" x="332.14" y="0">n</tspan><tspan class="cls-1" x="351.7" y="0">s</tspan></text><path class="cls-7" d="M392.07,129.88c-6.43,0-11.66-5.23-11.66-11.66s5.23-11.66,11.66-11.66,11.66,5.23,11.66,11.66-5.23,11.66-11.66,11.66Z"/><path d="M392.07,107.06c6.15,0,11.16,5.01,11.16,11.16s-5.01,11.16-11.16,11.16-11.16-5.01-11.16-11.16,5.01-11.16,11.16-11.16M392.07,106.06c-6.72,0-12.16,5.44-12.16,12.16s5.44,12.16,12.16,12.16,12.16-5.44,12.16-12.16-5.44-12.16-12.16-12.16h0Z"/><path class="cls-7" d="M435.86,53.21c-5.25,0-9.52-4.27-9.52-9.53s4.27-9.52,9.52-9.52,9.52,4.27,9.52,9.52-4.27,9.53-9.52,9.53Z"/><path d="M435.86,34.66c4.98,0,9.02,4.05,9.02,9.02s-4.05,9.02-9.02,9.02-9.02-4.05-9.02-9.02,4.05-9.02,9.02-9.02M435.86,33.66c-5.54,0-10.02,4.49-10.02,10.02s4.49,10.02,10.02,10.02,10.02-4.49,10.02-10.02-4.49-10.02-10.02-10.02h0Z"/><path class="cls-7" d="M376.24,76.41c-18.65,0-33.82-15.17-33.82-33.82s15.17-33.82,33.82-33.82,33.82,15.17,33.82,33.82-15.17,33.82-33.82,33.82Z"/><path d="M376.24,9.27c18.37,0,33.32,14.95,33.32,33.32s-14.95,33.32-33.32,33.32-33.32-14.95-33.32-33.32,14.95-33.32,33.32-33.32M376.24,8.27c-18.95,0-34.32,15.36-34.32,34.32s15.36,34.32,34.32,34.32,34.32-15.36,34.32-34.32-15.36-34.32-34.32-34.32h0Z"/><path class="cls-7" d="M328,153.17c-14.69,0-26.65-11.95-26.65-26.65s11.95-26.65,26.65-26.65,26.65,11.95,26.65,26.65-11.95,26.65-26.65,26.65Z"/><path d="M328,100.37c14.42,0,26.15,11.73,26.15,26.15s-11.73,26.15-26.15,26.15-26.15-11.73-26.15-26.15,11.73-26.15,26.15-26.15M328,99.37c-14.99,0-27.15,12.15-27.15,27.15s12.15,27.15,27.15,27.15,27.15-12.15,27.15-27.15-12.15-27.15-27.15-27.15h0Z"/><text class="cls-3" transform="translate(49.35 37.72)"><tspan class="cls-27" x="0" y="0">R</tspan><tspan x="28.83" y="0">oom </tspan><tspan class="cls-39" x="125.51" y="0">C</tspan><tspan class="cls-2" x="156.14" y="0">o</tspan><tspan class="cls-28" x="180.48" y="0">u</tspan><tspan class="cls-11" x="205.93" y="0">n</tspan><tspan class="cls-2" x="230.4" y="0">t</tspan><tspan class="cls-22" x="247.97" y="0">s</tspan></text><text class="cls-13" transform="translate(11.03 74.33)"><tspan x="0" y="0">S</tspan><tspan class="cls-25" x="22.91" y="0">p</tspan><tspan class="cls-17" x="43.05" y="0">a</tspan><tspan class="cls-35" x="61.22" y="0">tial </tspan><tspan class="cls-14" x="120.56" y="0">A</tspan><tspan class="cls-29" x="144.27" y="0">g</tspan><tspan x="165.11" y="0">g</tspan><tspan class="cls-12" x="186.4" y="0">r</tspan><tspan class="cls-1" x="199.49" y="0">e</tspan><tspan class="cls-8" x="218.74" y="0">g</tspan><tspan class="cls-17" x="239.51" y="0">a</tspan><tspan class="cls-36" x="257.69" y="0">t</tspan><tspan class="cls-1" x="270.53" y="0">es</tspan></text></svg>