<?xml version="1.0" encoding="UTF-8"?><svg id="Layer_1" xmlns="http://www.w3.org/2000/svg" width="1050" height="450" viewBox="0 0 1050 450"><defs><style>.cls-1{letter-spacing:.02em;}.cls-2,.cls-3,.cls-4{font-family:PublicSans-Bold, 'Public Sans';font-size:50px;font-weight:700;stroke:#000;stroke-miterlimit:10;stroke-width:2px;}.cls-2,.cls-5{fill:#ffd23f;}.cls-6{letter-spacing:.03em;}.cls-7{letter-spacing:.02em;}.cls-8,.cls-5,.cls-9{opacity:.8;}.cls-8,.cls-4{fill:#533747;}.cls-10{letter-spacing:.01em;}.cls-3,.cls-9{fill:#cd5334;}.cls-11{letter-spacing:.03em;}.cls-12{letter-spacing:.01em;}.cls-13{letter-spacing:.03em;}.cls-14{letter-spacing:.03em;}.cls-15{letter-spacing:.01em;}.cls-16{letter-spacing:.03em;}.cls-17{letter-spacing:.02em;}.cls-18{letter-spacing:.03em;}.cls-19{letter-spacing:.03em;}.cls-20{letter-spacing:.03em;}.cls-21{letter-spacing:0em;}</style></defs><path class="cls-5" d="M454.29,449.5c-84.34,0-152.95-68.62-152.95-152.95s68.62-152.95,152.95-152.95,152.95,68.62,152.95,152.95-68.62,152.95-152.95,152.95Z"/><path d="M454.29,144.09c40.72,0,79.01,15.86,107.8,44.65,28.79,28.79,44.65,67.08,44.65,107.8s-15.86,79.01-44.65,107.8c-28.79,28.79-67.08,44.65-107.8,44.65s-79.01-15.86-107.8-44.65c-28.79-28.79-44.65-67.08-44.65-107.8s15.86-79.01,44.65-107.8,67.08-44.65,107.8-44.65M454.29,143.09c-84.75,0-153.45,68.7-153.45,153.45s68.7,153.45,153.45,153.45,153.45-68.7,153.45-153.45-68.7-153.45-153.45-153.45h0Z"/><path class="cls-8" d="M665.94,374.03c-77.6,0-140.73-63.13-140.73-140.73s63.13-140.73,140.73-140.73,140.73,63.13,140.73,140.73-63.13,140.73-140.73,140.73Z"/><path d="M665.94,93.07c37.46,0,72.67,14.59,99.16,41.07,26.49,26.49,41.07,61.7,41.07,99.16s-14.59,72.67-41.07,99.16c-26.49,26.49-61.7,41.07-99.16,41.07s-72.67-14.59-99.16-41.07c-26.49-26.49-41.07-61.7-41.07-99.16s14.59-72.67,41.07-99.16c26.49-26.49,61.7-41.07,99.16-41.07M665.94,92.07c-78,0-141.23,63.23-141.23,141.23s63.23,141.23,141.23,141.23,141.23-63.23,141.23-141.23-63.23-141.23-141.23-141.23h0Z"/><path class="cls-9" d="M518.96,236.95c-65.19,0-118.23-53.04-118.23-118.23S453.77.5,518.96.5s118.23,53.04,118.23,118.23-53.04,118.23-118.23,118.23Z"/><path d="M518.96,1c31.45,0,61.01,12.25,83.25,34.48,22.24,22.24,34.48,51.8,34.48,83.25s-12.25,61.01-34.48,83.25c-22.24,22.24-51.8,34.48-83.25,34.48s-61.01-12.25-83.25-34.48c-22.24-22.24-34.48-51.8-34.48-83.25s12.25-61.01,34.48-83.25C457.95,13.25,487.51,1,518.96,1M518.96,0C453.38,0,400.23,53.16,400.23,118.73s53.16,118.73,118.73,118.73,118.73-53.16,118.73-118.73S584.53,0,518.96,0h0Z"/><path d="M518.36,3.4c30.91,0,59.97,12.04,81.83,33.9,21.86,21.86,33.9,50.92,33.9,81.83s-12.04,59.97-33.9,81.83-50.92,33.9-81.83,33.9-59.97-12.04-81.83-33.9-33.9-50.92-33.9-81.83,12.04-59.97,33.9-81.83c21.86-21.86,50.92-33.9,81.83-33.9M518.36.4c-65.57,0-118.73,53.16-118.73,118.73s53.16,118.73,118.73,118.73,118.73-53.16,118.73-118.73S583.93.4,518.36.4h0Z"/><path d="M665.94,95.07c36.92,0,71.63,14.38,97.74,40.49,26.11,26.11,40.49,60.82,40.49,97.74s-14.38,71.63-40.49,97.74c-26.11,26.11-60.82,40.49-97.74,40.49s-71.63-14.38-97.74-40.49c-26.11-26.11-40.49-60.82-40.49-97.74s14.38-71.63,40.49-97.74c26.11-26.11,60.82-40.49,97.74-40.49M665.94,92.07c-78,0-141.23,63.23-141.23,141.23s63.23,141.23,141.23,141.23,141.23-63.23,141.23-141.23-63.23-141.23-141.23-141.23h0Z"/><path d="M454.29,146.09c40.19,0,77.97,15.65,106.39,44.07,28.42,28.42,44.07,66.2,44.07,106.39s-15.65,77.97-44.07,106.39c-28.42,28.42-66.2,44.07-106.39,44.07s-77.97-15.65-106.39-44.07c-28.42-28.42-44.07-66.2-44.07-106.39s15.65-77.97,44.07-106.39c28.42-28.42,66.2-44.07,106.39-44.07M454.29,143.09c-84.75,0-153.45,68.7-153.45,153.45s68.7,153.45,153.45,153.45,153.45-68.7,153.45-153.45-68.7-153.45-153.45-153.45h0Z"/><text class="cls-2" transform="translate(69.58 438.76)"><tspan class="cls-18" x="0" y="0">C</tspan><tspan class="cls-19" x="37.5" y="0">e</tspan><tspan class="cls-1" x="67.82" y="0">r</tspan><tspan class="cls-19" x="89.37" y="0">ami</tspan><tspan class="cls-11" x="180.32" y="0">c</tspan><tspan class="cls-17" x="209.1" y="0">s</tspan></text><text class="cls-4" transform="translate(742.52 413.71)"><tspan class="cls-16" x="0" y="0">E</tspan><tspan class="cls-21" x="33" y="0">x</tspan><tspan class="cls-14" x="62.55" y="0">c</tspan><tspan class="cls-10" x="91.25" y="0">av</tspan><tspan class="cls-15" x="146.75" y="0">a</tspan><tspan class="cls-19" x="175.68" y="0">tio</tspan><tspan class="cls-20" x="243.12" y="0">n</tspan><tspan class="cls-7" x="274.02" y="0">s</tspan></text><text class="cls-3" transform="translate(122.23 44.91)"><tspan class="cls-12" x="0" y="0">T</tspan><tspan class="cls-13" x="31.53" y="0">r</tspan><tspan class="cls-19" x="53.58" y="0">e</tspan><tspan class="cls-14" x="83.9" y="0">e</tspan><tspan class="cls-19" x="114.07" y="0"> </tspan><tspan class="cls-14" x="126.85" y="0">R</tspan><tspan class="cls-6" x="163" y="0">i</tspan><tspan class="cls-19" x="178" y="0">n</tspan><tspan class="cls-1" x="209.15" y="0">g</tspan><tspan class="cls-17" x="241.52" y="0">s</tspan></text></svg>